<svg width="69" height="28" viewBox="0 0 69 28" fill="none" xmlns="http://www.w3.org/2000/svg">
<g clip-path="url(#clip0_1308_3108)">
<path d="M59.9846 0C59.7724 3.25435 58.8706 4.1562 55.6162 4.3684C58.8706 4.5806 59.7724 5.48245 59.9846 8.7368C60.1968 5.48245 61.0987 4.5806 64.353 4.3684C61.0987 4.1562 60.1968 3.25435 59.9846 0Z" fill="white"/>
</g>
<g clip-path="url(#clip1_1308_3108)">
<path d="M66.6527 7.3584C66.541 9.07121 66.0663 9.54587 64.3535 9.65756C66.0663 9.76924 66.541 10.2439 66.6527 11.9567C66.7644 10.2439 67.239 9.76924 68.9518 9.65756C67.239 9.54587 66.7644 9.07121 66.6527 7.3584Z" fill="white"/>
</g>
<path d="M15.6803 11.6762H12.2315L12.2085 11.7222C13.4731 12.366 13.1512 14.0673 12.1625 15.7227L9.12766 20.7809L4.29943 13.3316C3.8166 12.5499 3.72464 11.9751 4.18447 11.7222L4.16148 11.6762H0.0229916L0 11.7222C0.528806 11.9751 1.05761 12.5499 1.56343 13.3086L6.8285 21.1717V25.885C6.8285 26.8277 6.62158 27.4714 6.18474 27.7243L6.20773 27.7703H10.2083L10.2313 27.7243C9.79442 27.4714 9.58749 26.8277 9.58749 25.885V20.39L13.9099 13.8374C14.5537 12.8718 15.1515 12.251 15.7033 11.7222L15.6803 11.6762Z" fill="white"/>
<path d="M24.5633 28.0002C29.3685 28.0002 32.9552 24.6435 32.9552 19.6083C32.9552 14.5272 29.4605 11.4463 24.7932 11.4463C19.9879 11.4463 16.4013 14.849 16.4013 19.9532C16.4013 24.9653 19.896 28.0002 24.5633 28.0002ZM25.437 27.6324C21.5744 27.6324 18.9993 23.057 18.9993 17.815C18.9993 13.9984 21.0456 11.7912 23.9195 11.7912C27.7821 11.7912 30.3572 16.4814 30.3572 21.7235C30.3572 25.4941 28.3109 27.6324 25.437 27.6324Z" fill="white"/>
<path d="M44.0307 26.0689C43.4559 27.2185 42.3063 27.6324 41.3177 27.6324H37.708V13.5615C37.708 12.6189 37.9149 11.9751 38.3518 11.7222L38.3288 11.6762H34.3052L34.2822 11.7222C34.7191 11.9751 34.926 12.6189 34.926 13.5615V25.885C34.926 26.8277 34.7191 27.4714 34.2822 27.7243L34.3052 27.7703H44.0767V26.0919L44.0307 26.0689Z" fill="white"/>
<path d="M53.5273 28.0002C58.3325 28.0002 61.9192 24.6435 61.9192 19.6083C61.9192 14.5272 58.4245 11.4463 53.7572 11.4463C48.952 11.4463 45.3653 14.849 45.3653 19.9532C45.3653 24.9653 48.86 28.0002 53.5273 28.0002ZM54.401 27.6324C50.5384 27.6324 47.9633 23.057 47.9633 17.815C47.9633 13.9984 50.0096 11.7912 52.8835 11.7912C56.7461 11.7912 59.3212 16.4814 59.3212 21.7235C59.3212 25.4941 57.2749 27.6324 54.401 27.6324Z" fill="white"/>
<defs>
<clipPath id="clip0_1308_3108">
<rect width="8.7368" height="8.7368" fill="white" transform="translate(55.6162)"/>
</clipPath>
<clipPath id="clip1_1308_3108">
<rect width="4.59832" height="4.59832" fill="white" transform="translate(64.3535 7.3584)"/>
</clipPath>
</defs>
</svg>
