<svg width="20" height="20" viewBox="0 0 20 20" fill="none" xmlns="http://www.w3.org/2000/svg">
<g clip-path="url(#clip0_1308_3127)">
<path d="M14.9597 3.33008H5.70278C3.65779 3.33008 2 5.03523 2 7.13865V12.8515C2 14.9549 3.65779 16.6601 5.70278 16.6601H14.9597C17.0047 16.6601 18.6625 14.9549 18.6625 12.8515V7.13865C18.6625 5.03523 17.0047 3.33008 14.9597 3.33008Z" fill="white"/>
<path fill-rule="evenodd" clip-rule="evenodd" d="M8.41133 7.11126C8.66552 6.95911 8.97749 6.96327 9.22797 7.12215L12.6063 9.26501C12.8506 9.41991 13 9.69892 13 10C13 10.3011 12.8506 10.5801 12.6063 10.735L9.22797 12.8779C8.97749 13.0367 8.66552 13.0409 8.41133 12.8887C8.15713 12.7366 8 12.4517 8 12.1429V7.85714C8 7.54834 8.15713 7.2634 8.41133 7.11126Z" fill="#3258B9"/>
</g>
<defs>
<clipPath id="clip0_1308_3127">
<rect width="20" height="20" fill="white"/>
</clipPath>
</defs>
</svg>
