<svg width="24" height="24" viewBox="0 0 24 24" fill="none" xmlns="http://www.w3.org/2000/svg">
<g clip-path="url(#clip0_429_44406)">
<path d="M22.0435 3H1.95652C1.42825 3 1 3.4264 1 3.95238V22.0476C1 22.5736 1.42825 23 1.95652 23H22.0435C22.5718 23 23 22.5736 23 22.0476V3.95238C23 3.4264 22.5718 3 22.0435 3Z" stroke="black" stroke-width="1.5" stroke-linecap="round" stroke-linejoin="round"/>
<path d="M6 1V6" stroke="black" stroke-width="1.5" stroke-linecap="round" stroke-linejoin="round"/>
<path d="M18 1V6" stroke="black" stroke-width="1.5" stroke-linecap="round" stroke-linejoin="round"/>
<path d="M1 8H23" stroke="black" stroke-width="1.5" stroke-linecap="round" stroke-linejoin="round"/>
<path d="M10.5 17.1C10.5 17.4165 10.5938 17.7258 10.7696 17.989C10.9455 18.2521 11.1953 18.4572 11.4877 18.5783C11.7801 18.6994 12.1018 18.731 12.4121 18.6693C12.7225 18.6076 13.0076 18.4552 13.2314 18.2314C13.4551 18.0077 13.6075 17.7226 13.6693 17.4122C13.731 17.1018 13.6993 16.7801 13.5782 16.4878C13.4571 16.1954 13.252 15.9455 12.9889 15.7697C12.7258 15.5939 12.4164 15.5 12.1 15.5C11.7836 15.5 11.4742 15.4062 11.2111 15.2304C10.948 15.0546 10.7429 14.8047 10.6218 14.5123C10.5007 14.22 10.469 13.8983 10.5307 13.5879C10.5925 13.2775 10.7449 12.9924 10.9686 12.7687C11.1924 12.5449 11.4775 12.3925 11.7879 12.3308C12.0982 12.2691 12.4199 12.3007 12.7123 12.4218C13.0047 12.5429 13.2545 12.748 13.4304 13.0111C13.6062 13.2743 13.7 13.5836 13.7 13.9" stroke="black" stroke-width="1.5" stroke-linecap="round" stroke-linejoin="round"/>
<path d="M12.0996 11.5V12.3" stroke="black" stroke-width="1.5" stroke-linecap="round" stroke-linejoin="round"/>
<path d="M12.0996 18.7V19.5" stroke="black" stroke-width="1.5" stroke-linecap="round" stroke-linejoin="round"/>
</g>
<defs>
<clipPath id="clip0_429_44406">
<rect width="24" height="24" fill="white"/>
</clipPath>
</defs>
</svg>
