<svg width="24" height="24" viewBox="0 0 24 24" fill="none" xmlns="http://www.w3.org/2000/svg">
<g clip-path="url(#clip0_398_55795)">
<path d="M14.669 5.25381C14.1733 5.08493 13.63 5.1173 13.1584 5.34378C12.6868 5.57027 12.3254 5.97238 12.1537 6.4618L11.7174 7.70941L10.7977 5.71961C9.44467 2.79337 6.77281 1.13214 3.8094 2.4677C0.845988 3.80325 0.366598 6.88605 1.71867 9.81228L6.42745 20L15.5036 15.9131L14.763 14.3089C14.5839 13.9199 14.5398 13.4834 14.6377 13.0671L15.9761 7.40307C16.048 6.95028 15.9565 6.48695 15.7175 6.09407C15.4786 5.70119 15.1075 5.40377 14.669 5.25381V5.25381Z" stroke="black" stroke-width="1.5" stroke-linecap="round" stroke-linejoin="round"/>
<path d="M6 19.8461L15.0329 16L15.956 17.8871C15.9826 17.9415 15.9974 18.0003 15.9997 18.06C16.002 18.1198 15.9916 18.1794 15.9691 18.2354C15.9467 18.2914 15.9127 18.3427 15.869 18.3864C15.8253 18.4301 15.7728 18.4653 15.7145 18.4901L7.56764 21.9587C7.50947 21.9836 7.44661 21.9975 7.38268 21.9997C7.31874 22.0019 7.25497 21.9923 7.19501 21.9714C7.13506 21.9505 7.08009 21.9188 7.03326 21.8781C6.98643 21.8374 6.94865 21.7885 6.92208 21.7341L6 19.8461Z" stroke="black" stroke-width="1.5" stroke-linecap="round" stroke-linejoin="round"/>
<path d="M22.9447 16L23.9518 18.2001C23.9808 18.2634 23.9971 18.3319 23.9996 18.4015C24.0022 18.4711 23.9909 18.5406 23.9666 18.6059C23.9422 18.6711 23.9052 18.731 23.8576 18.782C23.8101 18.833 23.7529 18.8741 23.6894 18.9031L14.7986 22.9523C14.6705 23.0105 14.5245 23.0157 14.3926 22.9666C14.2608 22.9174 14.1538 22.8181 14.0953 22.6904L13 20.2963" stroke="black" stroke-width="1.5" stroke-linecap="round" stroke-linejoin="round"/>
<path d="M19.0269 18L22.5234 16.3099L21.8122 14.6596C21.6394 14.2597 21.5971 13.8103 21.692 13.3821L22.9781 7.55538C23.0499 7.05961 22.944 6.55335 22.6811 6.13599C22.4183 5.71863 22.0175 5.42032 21.5575 5.29964C21.0975 5.17897 20.6115 5.24464 20.1949 5.48376C19.7783 5.72288 19.4612 6.11818 19.3059 6.59204L18.8859 7.87549L18.0076 5.82952C16.8126 3.07073 14.558 1.40353 12 2.19885" stroke="black" stroke-width="1.5" stroke-linecap="round" stroke-linejoin="round"/>
</g>
<defs>
<clipPath id="clip0_398_55795">
<rect width="24" height="24" fill="white"/>
</clipPath>
</defs>
</svg>
