<svg width="24" height="24" viewBox="0 0 24 24" fill="none" xmlns="http://www.w3.org/2000/svg">
<path d="M22 10.9777C21.9988 14.1665 20.769 17.2242 18.5812 19.4787C16.3933 21.7332 13.4264 22.9997 10.3328 23C5.9491 23 4.75018 21.0927 2.3078 20.162C2.24988 20.1407 2.19666 20.1077 2.15123 20.065C2.1058 20.0222 2.06907 19.9706 2.04316 19.9131C2.01726 19.8556 2.0027 19.7934 2.00034 19.7301C1.99798 19.6667 2.00786 19.6035 2.02941 19.5441L2.35327 18.6422C2.37397 18.5825 2.40598 18.5276 2.44743 18.4808C2.48889 18.4339 2.53896 18.3961 2.59474 18.3694C2.65052 18.3427 2.7109 18.3277 2.77235 18.3252C2.83381 18.3228 2.89512 18.333 2.95273 18.3552C9.75281 20.9454 20.5496 11.8443 16.0277 2.52118C15.9629 2.38625 15.9298 2.23755 15.9309 2.08701C15.932 1.93648 15.9674 1.78832 16.0342 1.65445C16.101 1.52058 16.1973 1.40472 16.3155 1.3162C16.4336 1.22768 16.5702 1.16897 16.7143 1.14477L17.4781 1.01373C17.6974 0.975013 17.9229 1.01882 18.1135 1.13715C18.3041 1.25549 18.4471 1.44048 18.5164 1.65841C19.6708 5.21758 22 5.42036 22 10.9777Z" stroke="black" stroke-width="1.5" stroke-linecap="round" stroke-linejoin="round"/>
<path d="M19 9C18.7267 12.061 17.483 14.9266 15.479 17.1128C13.475 19.299 10.8333 20.672 8 21" stroke="black" stroke-width="1.5" stroke-linecap="round" stroke-linejoin="round"/>
</svg>
