<svg width="24" height="24" viewBox="0 0 24 24" fill="none" xmlns="http://www.w3.org/2000/svg">
<path d="M18 5.25C18.5967 5.25 19.169 5.01295 19.591 4.59099C20.0129 4.16903 20.25 3.59674 20.25 3C20.25 2.40326 20.0129 1.83097 19.591 1.40901C19.169 0.987053 18.5967 0.75 18 0.75H6C5.40326 0.75 4.83097 0.987053 4.40901 1.40901C3.98705 1.83097 3.75 2.40326 3.75 3C3.75 3.59674 3.98705 4.16903 4.40901 4.59099C4.83097 5.01295 5.40326 5.25 6 5.25H18Z" stroke="black" stroke-width="1.5" stroke-linecap="round" stroke-linejoin="round"/>
<path d="M12 5.25V23.25" stroke="black" stroke-width="1.5" stroke-linecap="round" stroke-linejoin="round"/>
<path d="M8.85 5.25L5.25 23.25" stroke="black" stroke-width="1.5" stroke-linecap="round" stroke-linejoin="round"/>
<path d="M15.1499 5.25L18.7499 23.25" stroke="black" stroke-width="1.5" stroke-linecap="round" stroke-linejoin="round"/>
<path d="M6.1499 18.75H17.8499" stroke="black" stroke-width="1.5" stroke-linecap="round" stroke-linejoin="round"/>
</svg>
