<svg width="24" height="24" viewBox="0 0 24 24" fill="none" xmlns="http://www.w3.org/2000/svg">
<g clip-path="url(#clip0_401_43737)">
<path d="M22.439 3.89991L19.122 7.21591H16.784V4.87791L20.1 1.56091C19.0754 1.00128 17.9048 0.766652 16.7438 0.888199C15.5827 1.00975 14.4861 1.48171 13.5996 2.24139C12.7132 3.00107 12.0789 4.01249 11.781 5.14128C11.4832 6.27006 11.5358 7.46276 11.932 8.56091L1.58897 18.8999C1.12338 19.3655 0.861816 19.997 0.861816 20.6554C0.861816 21.3138 1.12338 21.9453 1.58897 22.4109C2.05456 22.8765 2.68603 23.1381 3.34447 23.1381C4.00291 23.1381 4.63438 22.8765 5.09997 22.4109L15.44 12.0669C16.5381 12.4631 17.7308 12.5157 18.8596 12.2178C19.9884 11.92 20.9998 11.2857 21.7595 10.3992C22.5192 9.5128 22.9911 8.41619 23.1127 7.25511C23.2342 6.09403 22.9996 4.92345 22.44 3.89891L22.439 3.89991Z" stroke="black" stroke-width="1.5" stroke-linecap="round" stroke-linejoin="round"/>
</g>
<defs>
<clipPath id="clip0_401_43737">
<rect width="24" height="24" fill="white"/>
</clipPath>
</defs>
</svg>
