<svg width="24" height="24" viewBox="0 0 24 24" fill="none" xmlns="http://www.w3.org/2000/svg">
<path d="M10.3301 5.67036C10.3301 6.11336 10.5061 6.53822 10.8193 6.85148C11.1326 7.16473 11.5574 7.34071 12.0004 7.34071C12.4434 7.34071 12.8683 7.16473 13.1816 6.85148C13.4948 6.53822 13.6708 6.11336 13.6708 5.67036C13.6708 5.22735 13.4948 4.80249 13.1816 4.48924C12.8683 4.17598 12.4434 4 12.0004 4C11.5574 4 11.1326 4.17598 10.8193 4.48924C10.5061 4.80249 10.3301 5.22735 10.3301 5.67036V5.67036Z" stroke="black" stroke-width="1.5" stroke-linecap="round" stroke-linejoin="round"/>
<path d="M12 7.34131V20.7042" stroke="black" stroke-width="1.5" stroke-linecap="round" stroke-linejoin="round"/>
<path d="M9.21729 10.6802H14.7851" stroke="black" stroke-width="1.5" stroke-linecap="round" stroke-linejoin="round"/>
<path d="M6.98887 14.0225H5.55682C5.46017 14.0225 5.36517 14.0476 5.28119 14.0955C5.1972 14.1433 5.12712 14.2122 5.07783 14.2953C5.02854 14.3785 5.00175 14.473 5.00008 14.5697C4.99842 14.6663 5.02194 14.7617 5.06834 14.8465C5.73366 16.1088 6.7307 17.1658 7.9521 17.9036C9.1735 18.6414 10.573 19.032 11.9999 19.0335" stroke="black" stroke-width="1.5" stroke-linecap="round" stroke-linejoin="round"/>
<path d="M17.0111 14.0225H18.4431C18.5398 14.0225 18.6348 14.0476 18.7188 14.0955C18.8027 14.1433 18.8728 14.2122 18.9221 14.2953C18.9714 14.3785 18.9982 14.473 18.9999 14.5697C19.0015 14.6663 18.978 14.7617 18.9316 14.8465C18.2663 16.1088 17.2692 17.1658 16.0478 17.9036C14.8264 18.6414 13.4269 19.032 12 19.0335" stroke="black" stroke-width="1.5" stroke-linecap="round" stroke-linejoin="round"/>
</svg>
