<svg width="24" height="24" viewBox="0 0 24 24" fill="none" xmlns="http://www.w3.org/2000/svg">
<g clip-path="url(#clip0_424_45189)">
<path d="M6.5 19C7.32843 19 8 18.3284 8 17.5C8 16.6716 7.32843 16 6.5 16C5.67157 16 5 16.6716 5 17.5C5 18.3284 5.67157 19 6.5 19Z" stroke="black" stroke-width="1.5" stroke-linecap="round" stroke-linejoin="round"/>
<path d="M20.1303 1L10.7732 10.3577C9.35401 9.62332 7.71898 9.4207 6.16346 9.78641C4.60794 10.1521 3.23448 11.062 2.29119 12.3518C1.3479 13.6415 0.896961 15.2261 1.01984 16.8192C1.14271 18.4123 1.83129 19.909 2.96121 21.0389C4.09112 22.1687 5.58786 22.8573 7.18106 22.9802C8.77427 23.103 10.3589 22.6521 11.6487 21.7089C12.9385 20.7656 13.8484 19.3922 14.2142 17.8368C14.5799 16.2813 14.3773 14.6463 13.6429 13.2272L16.7823 10.087H18.2172V8.65217L18.6955 8.17391H20.1303V6.73913L20.6086 6.26087H22.0434V4.82609L23 3.86956V1H20.1303Z" stroke="black" stroke-width="1.5" stroke-linecap="round" stroke-linejoin="round"/>
</g>
<defs>
<clipPath id="clip0_424_45189">
<rect width="24" height="24" fill="white"/>
</clipPath>
</defs>
</svg>
