<svg width="24" height="24" viewBox="0 0 24 24" fill="none" xmlns="http://www.w3.org/2000/svg">
<path d="M19.3333 7H4.66667C3.19391 7 2 8.2536 2 9.8V18.2C2 19.7464 3.19391 21 4.66667 21H19.3333C20.8061 21 22 19.7464 22 18.2V9.8C22 8.2536 20.8061 7 19.3333 7Z" stroke="black" stroke-width="1.5" stroke-linecap="round" stroke-linejoin="round"/>
<path d="M7 7V21" stroke="black" stroke-width="1.5" stroke-linecap="round" stroke-linejoin="round"/>
<path d="M17 7V21" stroke="black" stroke-width="1.5" stroke-linecap="round" stroke-linejoin="round"/>
<path d="M15 7V4.33333C15 3.97971 14.8736 3.64057 14.6485 3.39052C14.4235 3.14048 14.1183 3 13.8 3H10.2C9.88174 3 9.57652 3.14048 9.35147 3.39052C9.12643 3.64057 9 3.97971 9 4.33333V7" stroke="black" stroke-width="1.5" stroke-linecap="round" stroke-linejoin="round"/>
</svg>
