<svg width="24" height="24" viewBox="0 0 24 24" fill="none" xmlns="http://www.w3.org/2000/svg">
<path d="M17.1761 5.88232H19.0585C20.0569 5.88232 21.0145 6.27896 21.7205 6.98498C22.4265 7.691 22.8232 8.64857 22.8232 9.64703C22.8232 10.6455 22.4265 11.6031 21.7205 12.3091C21.0145 13.0151 20.0569 13.4117 19.0585 13.4117H17.1196" stroke="black" stroke-width="1.5" stroke-linecap="round" stroke-linejoin="round"/>
<path d="M1.17627 20H22.8233" stroke="black" stroke-width="1.5" stroke-linecap="round" stroke-linejoin="round"/>
<path d="M2.11768 12.4706V4.47059C2.11768 4.34578 2.16726 4.22608 2.25551 4.13783C2.34376 4.04958 2.46346 4 2.58826 4H16.7059C16.8307 4 16.9504 4.04958 17.0387 4.13783C17.1269 4.22608 17.1765 4.34578 17.1765 4.47059V12.4706C17.1765 14.4675 16.3832 16.3826 14.9712 17.7947C13.5591 19.2067 11.644 20 9.64709 20C7.65016 20 5.73503 19.2067 4.32299 17.7947C2.91095 16.3826 2.11768 14.4675 2.11768 12.4706V12.4706Z" stroke="black" stroke-width="1.5" stroke-linecap="round" stroke-linejoin="round"/>
</svg>
