<svg width="24" height="24" viewBox="0 0 24 24" fill="none" xmlns="http://www.w3.org/2000/svg">
<path d="M17.248 9L17.748 3.75H6.24805L6.74805 8.774C6.72534 10.1068 7.19639 11.4009 8.07054 12.4072C8.9447 13.4136 10.1602 14.061 11.483 14.225C12.2124 14.2969 12.9487 14.2153 13.6447 13.9854C14.3406 13.7555 14.9807 13.3825 15.5237 12.8903C16.0667 12.3982 16.5007 11.7977 16.7977 11.1277C17.0947 10.4577 17.2481 9.7329 17.248 9Z" stroke="black" stroke-width="1.5" stroke-linecap="round" stroke-linejoin="round"/>
<path d="M2.65381 23.209C3.25522 21.1969 4.49003 19.4326 6.17459 18.1786C7.85915 16.9247 9.90348 16.2479 12.0035 16.249C14.1036 16.2501 16.1472 16.9291 17.8304 18.1849C19.5136 19.4407 20.7466 21.2062 21.3458 23.219" stroke="black" stroke-width="1.5" stroke-linecap="round" stroke-linejoin="round"/>
<path d="M18.3002 18.561L12.0002 21.712L5.7002 18.561" stroke="black" stroke-width="1.5" stroke-linecap="round" stroke-linejoin="round"/>
<path d="M8.24805 3.75V2.75C8.24963 2.22005 8.46085 1.71227 8.83558 1.33753C9.21031 0.962805 9.7181 0.751583 10.248 0.75H13.748C14.278 0.751583 14.7858 0.962805 15.1605 1.33753C15.5352 1.71227 15.7465 2.22005 15.748 2.75V3.75" stroke="black" stroke-width="1.5" stroke-linecap="round" stroke-linejoin="round"/>
<path d="M10.4692 23.2499L11.9982 21.7119L13.4852 23.2279" stroke="black" stroke-width="1.5" stroke-linecap="round" stroke-linejoin="round"/>
<path d="M17.3439 8H6.6709" stroke="black" stroke-width="1.5" stroke-linecap="round" stroke-linejoin="round"/>
</svg>
