<svg width="40" height="40" viewBox="0 0 40 40" fill="none" xmlns="http://www.w3.org/2000/svg">
<path d="M33.3333 0.833252H6.66667C5.74619 0.833252 5 1.57944 5 2.49992V37.4999C5 38.4204 5.74619 39.1666 6.66667 39.1666H33.3333C34.2538 39.1666 35 38.4204 35 37.4999V2.49992C35 1.57944 34.2538 0.833252 33.3333 0.833252Z" stroke="black" stroke-width="1.5" stroke-linecap="round" stroke-linejoin="round"/>
<path d="M5 14.1667H35" stroke="black" stroke-width="1.5" stroke-linecap="round" stroke-linejoin="round"/>
<path d="M16.6668 4.16675H10.0002C9.07969 4.16675 8.3335 4.91294 8.3335 5.83341V9.16675C8.3335 10.0872 9.07969 10.8334 10.0002 10.8334H16.6668C17.5873 10.8334 18.3335 10.0872 18.3335 9.16675V5.83341C18.3335 4.91294 17.5873 4.16675 16.6668 4.16675Z" stroke="black" stroke-width="1.5" stroke-linecap="round" stroke-linejoin="round"/>
<path d="M29.9998 4.16675H23.3332C22.4127 4.16675 21.6665 4.91294 21.6665 5.83341V9.16675C21.6665 10.0872 22.4127 10.8334 23.3332 10.8334H29.9998C30.9203 10.8334 31.6665 10.0872 31.6665 9.16675V5.83341C31.6665 4.91294 30.9203 4.16675 29.9998 4.16675Z" stroke="black" stroke-width="1.5" stroke-linecap="round" stroke-linejoin="round"/>
<path d="M5 19.1667H35" stroke="black" stroke-width="1.5" stroke-linecap="round" stroke-linejoin="round"/>
</svg>
