<svg width="24" height="24" viewBox="0 0 24 24" fill="none" xmlns="http://www.w3.org/2000/svg">
<path d="M15.375 7.5H15.3863" stroke="black" stroke-width="1.5" stroke-linecap="round" stroke-linejoin="round"/>
<path d="M17.625 3H6.375C4.51104 3 3 4.51104 3 6.375V17.625C3 19.489 4.51104 21 6.375 21H17.625C19.489 21 21 19.489 21 17.625V6.375C21 4.51104 19.489 3 17.625 3Z" stroke="black" stroke-width="1.5" stroke-linecap="round" stroke-linejoin="round"/>
<path d="M3 15.3749L7.5 10.8749C8.01306 10.3812 8.59506 10.1213 9.1875 10.1213C9.77994 10.1213 10.3619 10.3812 10.875 10.8749L16.5 16.4999" stroke="black" stroke-width="1.5" stroke-linecap="round" stroke-linejoin="round"/>
<path d="M14.25 14.2499L15.375 13.1249C15.8881 12.6312 16.4701 12.3713 17.0625 12.3713C17.6549 12.3713 18.2369 12.6312 18.75 13.1249L21 15.3749" stroke="black" stroke-width="1.5" stroke-linecap="round" stroke-linejoin="round"/>
</svg>
