<svg width="24" height="24" viewBox="0 0 24 24" fill="none" xmlns="http://www.w3.org/2000/svg">
<g clip-path="url(#clip0_398_55421)">
<path d="M6 8.5L1 9.5V2.5L6 3.5V8.5Z" stroke="black" stroke-width="1.5" stroke-linecap="round" stroke-linejoin="round"/>
<path d="M6 3.49999L18 1.52699C18.6283 1.45787 19.2641 1.52188 19.866 1.71486C20.4679 1.90784 21.0224 2.22546 21.4934 2.64703C21.9644 3.0686 22.3412 3.58466 22.5995 4.16159C22.8577 4.73853 22.9915 5.36339 22.9921 5.99547C22.9928 6.62756 22.8602 7.25269 22.6032 7.83014C22.3461 8.40759 21.9703 8.92441 21.5001 9.34693C21.03 9.76944 20.4761 10.0882 19.8746 10.2824C19.2731 10.4766 18.6374 10.5419 18.009 10.474L6 8.49999" stroke="black" stroke-width="1.5" stroke-linecap="round" stroke-linejoin="round"/>
<path d="M21.9689 8.86597L21.0759 17.583C21.0551 17.8335 20.9406 18.0671 20.7553 18.237C20.5699 18.4069 20.3274 18.5008 20.0759 18.5H17.0869C16.9483 18.5004 16.8111 18.4721 16.6841 18.4167C16.557 18.3614 16.4428 18.2802 16.3488 18.1784C16.2548 18.0765 16.1829 17.9563 16.1379 17.8252C16.0928 17.6941 16.0754 17.5551 16.0869 17.417L16.8479 10.284" stroke="black" stroke-width="1.5" stroke-linecap="round" stroke-linejoin="round"/>
<path d="M22.5 22.5H20.5C19.9696 22.5 19.4609 22.2893 19.0858 21.9142C18.7107 21.5391 18.5 21.0304 18.5 20.5V18.5" stroke="black" stroke-width="1.5" stroke-linecap="round" stroke-linejoin="round"/>
</g>
<defs>
<clipPath id="clip0_398_55421">
<rect width="24" height="24" fill="white"/>
</clipPath>
</defs>
</svg>
