<svg width="24" height="24" viewBox="0 0 24 24" fill="none" xmlns="http://www.w3.org/2000/svg">
<path d="M0.75 18.5H23.25" stroke="black" stroke-width="1.5" stroke-linecap="round" stroke-linejoin="round"/>
<path d="M21.7399 15.5209C21.81 14.1988 21.6102 12.8763 21.1526 11.6339C20.695 10.3915 19.9893 9.25523 19.0784 8.29441C18.1675 7.33358 17.0705 6.56828 15.8543 6.04513C14.6381 5.52198 13.328 5.25194 12.0041 5.25147C10.6801 5.25099 9.36987 5.52009 8.15326 6.04236C6.93665 6.56464 5.83911 7.32915 4.92752 8.28932C4.01594 9.24949 3.30939 10.3852 2.85093 11.6273C2.39248 12.8694 2.19171 14.1918 2.26087 15.5139" stroke="black" stroke-width="1.5" stroke-linecap="round" stroke-linejoin="round"/>
<path d="M12 5.25C12.8284 5.25 13.5 4.57843 13.5 3.75C13.5 2.92157 12.8284 2.25 12 2.25C11.1716 2.25 10.5 2.92157 10.5 3.75C10.5 4.57843 11.1716 5.25 12 5.25Z" stroke="black" stroke-width="1.5" stroke-linecap="round" stroke-linejoin="round"/>
<path d="M21.781 18.5L20.539 21.75H12.015H3.49102L2.24902 18.5" stroke="black" stroke-width="1.5" stroke-linecap="round" stroke-linejoin="round"/>
</svg>
