<svg width="24" height="24" viewBox="0 0 24 24" fill="none" xmlns="http://www.w3.org/2000/svg">
<g clip-path="url(#clip0_402_43830)">
<path d="M15.1621 13.4834V12.5097C15.7312 12.0829 16.1931 11.5294 16.5112 10.8931C16.8294 10.2569 16.995 9.55526 16.995 8.84388V3.38184" stroke="black" stroke-width="1.5" stroke-linecap="round" stroke-linejoin="round"/>
<path d="M8.28868 11.9055V10.6997C7.49779 10.2955 5.99756 9.47167 5.99756 8.10066V6.58577C5.99756 5.82695 7.98809 4.81885 8.74691 4.81885" stroke="black" stroke-width="1.5" stroke-linecap="round" stroke-linejoin="round"/>
<path d="M8.74658 6.89637V2.19499C8.74658 1.8304 8.89142 1.48074 9.14922 1.22294C9.40702 0.965143 9.75667 0.820312 10.1213 0.820312C10.4859 0.820312 10.8355 0.965143 11.0933 1.22294C11.3511 1.48074 11.496 1.8304 11.496 2.19499V3.79877" stroke="black" stroke-width="1.5" stroke-linecap="round" stroke-linejoin="round"/>
<path d="M11.4961 2.88713C11.4961 2.52254 11.6409 2.17289 11.8987 1.91509C12.1566 1.65728 12.5062 1.51245 12.8708 1.51245C13.2354 1.51245 13.585 1.65728 13.8428 1.91509C14.1006 2.17289 14.2455 2.52254 14.2455 2.88713V4.49091" stroke="black" stroke-width="1.5" stroke-linecap="round" stroke-linejoin="round"/>
<path d="M14.2456 3.57439C14.2456 3.2098 14.3905 2.86015 14.6483 2.60234C14.9061 2.34454 15.2557 2.19971 15.6203 2.19971C15.9849 2.19971 16.3345 2.34454 16.5923 2.60234C16.8501 2.86015 16.995 3.2098 16.995 3.57439V5.86551" stroke="black" stroke-width="1.5" stroke-linecap="round" stroke-linejoin="round"/>
<path d="M3.27844 18.1653V15.1797C3.27617 15.0224 3.30549 14.8662 3.36467 14.7203C3.42384 14.5745 3.51168 14.442 3.62297 14.3307C3.73425 14.2194 3.86674 14.1316 4.01257 14.0724C4.15841 14.0132 4.31463 13.9839 4.472 13.9862L8.42457 14.447C8.73618 14.4618 9.03108 14.5922 9.25167 14.8128C9.47225 15.0334 9.60268 15.3283 9.61748 15.6399V18.236C9.61647 18.9766 9.44316 19.7067 9.11124 20.3687L8.42198 21.7446L8.42262 23.1797" stroke="black" stroke-width="1.5" stroke-linecap="round" stroke-linejoin="round"/>
<path d="M3.28171 16.1291L2.719 16.1284C2.47633 16.1284 2.23605 16.1764 2.01207 16.2698C1.78809 16.3632 1.58485 16.5001 1.4141 16.6725C1.24336 16.845 1.10849 17.0495 1.01732 17.2744C0.926139 17.4993 0.880455 17.7401 0.882906 17.9827L0.894588 19.1081L2.08555 21.7451V23.1795" stroke="black" stroke-width="1.5" stroke-linecap="round" stroke-linejoin="round"/>
<path d="M16.7784 18.1653V15.1797C16.7761 15.0224 16.8055 14.8662 16.8646 14.7203C16.9238 14.5745 17.0117 14.442 17.1229 14.3307C17.2342 14.2194 17.3667 14.1316 17.5126 14.0724C17.6584 14.0132 17.8146 13.9839 17.972 13.9862L21.9246 14.447C22.2362 14.4618 22.5311 14.5922 22.7516 14.8128C22.9722 15.0334 23.1027 15.3283 23.1175 15.6399V18.236C23.1165 18.9766 22.9431 19.7067 22.6112 20.3687L21.922 21.7446L21.9226 23.1797" stroke="black" stroke-width="1.5" stroke-linecap="round" stroke-linejoin="round"/>
<path d="M16.7817 16.1291L16.219 16.1284C15.9763 16.1284 15.736 16.1764 15.5121 16.2698C15.2881 16.3632 15.0848 16.5001 14.9141 16.6725C14.7433 16.845 14.6085 17.0495 14.5173 17.2744C14.4261 17.4993 14.3804 17.7401 14.3829 17.9827L14.3946 19.1081L15.5855 21.7451V23.1795" stroke="black" stroke-width="1.5" stroke-linecap="round" stroke-linejoin="round"/>
</g>
<defs>
<clipPath id="clip0_402_43830">
<rect width="24" height="24" fill="white"/>
</clipPath>
</defs>
</svg>
