<svg width="24" height="24" viewBox="0 0 24 24" fill="none" xmlns="http://www.w3.org/2000/svg">
<path d="M16.1536 7.74713L12.0001 8.73604L7.84668 7.74713L8.22642 5.75504C8.23715 5.5656 8.29558 5.38194 8.39629 5.22112C8.497 5.06031 8.63673 4.92756 8.80249 4.83521C8.96825 4.74286 9.15466 4.6939 9.34441 4.69289C9.53415 4.69187 9.72108 4.73884 9.88781 4.82942L10.5555 5.12688C11.4874 5.47974 12.5161 5.47974 13.4479 5.12688L14.1156 4.82942C14.2824 4.73884 14.4693 4.69187 14.659 4.69289C14.8488 4.6939 15.0352 4.74286 15.201 4.83521C15.3667 4.92756 15.5064 5.06031 15.6072 5.22112C15.7079 5.38194 15.7663 5.5656 15.777 5.75504L16.1536 7.74713Z" stroke="black" stroke-width="1.5" stroke-linecap="round" stroke-linejoin="round"/>
<path d="M9.98389 4.87262C10.0491 4.37439 10.2863 3.9146 10.6545 3.57268C11.0227 3.23076 11.4988 3.0282 12.0005 3C12.5022 3.02805 12.9784 3.23056 13.3466 3.57251C13.7149 3.91445 13.952 4.37433 14.0171 4.87262" stroke="black" stroke-width="1.5" stroke-linecap="round" stroke-linejoin="round"/>
<path d="M12.0001 9.13135C12.0001 9.13135 10.8657 11.9794 8.01994 12.0942C7.83504 12.7141 7.79751 13.3687 7.91034 14.0057C8.02317 14.6427 8.28325 15.2445 8.66984 15.7633C9.05643 16.282 9.55884 16.7032 10.137 16.9934C10.7152 17.2836 11.3532 17.4347 12.0001 17.4347C12.6471 17.4347 13.2851 17.2836 13.8633 16.9934C14.4414 16.7032 14.9439 16.282 15.3304 15.7633C15.717 15.2445 15.9771 14.6427 16.0899 14.0057C16.2028 13.3687 16.1652 12.7141 15.9803 12.0942C13.1346 11.9794 12.0001 9.13135 12.0001 9.13135Z" stroke="black" stroke-width="1.5" stroke-linecap="round" stroke-linejoin="round"/>
<path d="M8.00007 6.94019C7.21285 7.54983 6.57577 8.33174 6.13774 9.2259C5.69971 10.1201 5.47237 11.1027 5.47319 12.0984V13.7408C5.47329 14.2233 5.37532 14.7008 5.18521 15.1443L4.09661 17.683C3.97353 17.9691 3.96784 18.2921 4.08076 18.5823C4.19369 18.8726 4.41618 19.1068 4.70025 19.2344" stroke="black" stroke-width="1.5" stroke-linecap="round" stroke-linejoin="round"/>
<path d="M19.2998 19.2344C19.5839 19.1068 19.8064 18.8726 19.9193 18.5823C20.0322 18.2921 20.0265 17.9691 19.9035 17.683L18.8149 15.1443C18.6249 14.701 18.5269 14.2238 18.5269 13.7416V12.0984C18.5277 11.1027 18.3004 10.1201 17.8623 9.2259C17.4243 8.33174 16.7872 7.54983 16 6.94019" stroke="black" stroke-width="1.5" stroke-linecap="round" stroke-linejoin="round"/>
<path d="M17.5951 20.8007C16.0679 19.4013 14.0716 18.625 12.0002 18.625C9.92875 18.625 7.93251 19.4013 6.40527 20.8007" stroke="black" stroke-width="1.5" stroke-linecap="round" stroke-linejoin="round"/>
<path d="M8.88672 19.23L10.3543 20.8004" stroke="black" stroke-width="1.5" stroke-linecap="round" stroke-linejoin="round"/>
<path d="M13.6465 20.8003L15.114 19.2307" stroke="black" stroke-width="1.5" stroke-linecap="round" stroke-linejoin="round"/>
</svg>
