<svg width="24" height="24" viewBox="0 0 24 24" fill="none" xmlns="http://www.w3.org/2000/svg">
<path d="M18.5 16.1469C18.5 17.9371 17.7888 19.654 16.523 20.9199C15.2571 22.1857 13.5402 22.8969 11.75 22.8969C9.95979 22.8969 8.2429 22.1857 6.97703 20.9199C5.71116 19.654 5 17.9371 5 16.1469C5 11.2769 9.448 3.93489 11.122 1.34689C11.1893 1.24138 11.2822 1.15454 11.3919 1.09438C11.5017 1.03422 11.6248 1.00269 11.75 1.00269C11.8752 1.00269 11.9983 1.03422 12.1081 1.09438C12.2178 1.15454 12.3107 1.24138 12.378 1.34689C14.052 3.93489 18.5 11.2769 18.5 16.1469Z" stroke="black" stroke-width="1.5" stroke-linecap="round" stroke-linejoin="round"/>
<path d="M11.75 19.9C11.2573 19.9 10.7694 19.8029 10.3142 19.6142C9.85908 19.4256 9.44555 19.1491 9.09729 18.8006C8.74903 18.452 8.47287 18.0383 8.28459 17.583C8.09631 17.1276 7.99961 16.6397 8 16.147" stroke="black" stroke-width="1.5" stroke-linecap="round" stroke-linejoin="round"/>
</svg>
