<svg width="24" height="24" viewBox="0 0 24 24" fill="none" xmlns="http://www.w3.org/2000/svg">
<g clip-path="url(#clip0_429_44310)">
<path d="M23.5 22.4419C21 22.9629 19.44 20.4629 19.44 20.4629C19.053 21.0777 18.5198 21.5872 17.8879 21.9458C17.2561 22.3044 16.5453 22.5009 15.819 22.5179C15.0968 22.4834 14.3929 22.2793 13.7642 21.9223C13.1355 21.5653 12.5997 21.0654 12.2 20.4629C11.8131 21.0776 11.28 21.587 10.6484 21.9456C10.0167 22.3041 9.30613 22.5008 8.58 22.5179C7.85754 22.4841 7.15323 22.2803 6.52425 21.9233C5.89528 21.5662 5.35936 21.0659 4.96 20.4629C4.96 20.4629 2.952 22.9999 0.5 22.4829" stroke="black" stroke-width="1.5" stroke-linecap="round" stroke-linejoin="round"/>
<path d="M23.5 18.4419C21 18.9629 19.44 16.4629 19.44 16.4629C19.053 17.0777 18.5198 17.5872 17.8879 17.9458C17.2561 18.3044 16.5453 18.5009 15.819 18.5179C15.0968 18.4834 14.3929 18.2793 13.7642 17.9223C13.1355 17.5653 12.5997 17.0654 12.2 16.4629C11.8131 17.0776 11.28 17.587 10.6484 17.9456C10.0167 18.3041 9.30613 18.5008 8.58 18.5179C7.85754 18.4841 7.15323 18.2803 6.52425 17.9233C5.89528 17.5662 5.35936 17.0659 4.96 16.4629C4.96 16.4629 2.952 18.9999 0.5 18.4829" stroke="black" stroke-width="1.5" stroke-linecap="round" stroke-linejoin="round"/>
<path d="M9 15.727V3.94702C9 3.28398 9.26339 2.6481 9.73223 2.17925C10.2011 1.71041 10.837 1.44702 11.5 1.44702C12.163 1.44702 12.7989 1.71041 13.2678 2.17925C13.7366 2.6481 14 3.28398 14 3.94702V4.94702" stroke="black" stroke-width="1.5" stroke-linecap="round" stroke-linejoin="round"/>
<path d="M16 15.942V3.94702C16 3.28398 16.2634 2.6481 16.7322 2.17925C17.2011 1.71041 17.837 1.44702 18.5 1.44702C19.163 1.44702 19.7989 1.71041 20.2678 2.17925C20.7366 2.6481 21 3.28398 21 3.94702V4.94702" stroke="black" stroke-width="1.5" stroke-linecap="round" stroke-linejoin="round"/>
<path d="M8.99805 10.447H15.998" stroke="black" stroke-width="1.5" stroke-linecap="round" stroke-linejoin="round"/>
<path d="M8.99805 7.44702H15.998" stroke="black" stroke-width="1.5" stroke-linecap="round" stroke-linejoin="round"/>
<path d="M8.99805 13.447H15.998" stroke="black" stroke-width="1.5" stroke-linecap="round" stroke-linejoin="round"/>
</g>
<defs>
<clipPath id="clip0_429_44310">
<rect width="24" height="24" fill="white"/>
</clipPath>
</defs>
</svg>
