<svg width="24" height="24" viewBox="0 0 24 24" fill="none" xmlns="http://www.w3.org/2000/svg">
<path d="M12.001 0.734619V23.2652" stroke="black" stroke-width="1.46939" stroke-linecap="round" stroke-linejoin="round"/>
<path d="M2.24414 6.36743L21.7566 17.6327" stroke="black" stroke-width="1.46939" stroke-linecap="round" stroke-linejoin="round"/>
<path d="M2.24316 17.6337L21.7566 6.36743" stroke="black" stroke-width="1.46939" stroke-linecap="round" stroke-linejoin="round"/>
<path d="M9.55176 2.69385L12.0007 5.14283L14.4497 2.69385" stroke="black" stroke-width="1.46939" stroke-linecap="round" stroke-linejoin="round"/>
<path d="M2.71533 9.46771L6.06162 8.57138L5.16431 5.22607" stroke="black" stroke-width="1.46939" stroke-linecap="round" stroke-linejoin="round"/>
<path d="M5.16431 18.7748L6.06162 15.4285L2.71533 14.5332" stroke="black" stroke-width="1.46939" stroke-linecap="round" stroke-linejoin="round"/>
<path d="M14.4497 21.3071L11.9998 18.8572L9.55176 21.3071" stroke="black" stroke-width="1.46939" stroke-linecap="round" stroke-linejoin="round"/>
<path d="M21.2857 14.5332L17.9375 15.4295L18.8368 18.7748" stroke="black" stroke-width="1.46939" stroke-linecap="round" stroke-linejoin="round"/>
<path d="M18.8368 5.22607L17.9385 8.57334L21.2857 9.46771" stroke="black" stroke-width="1.46939" stroke-linecap="round" stroke-linejoin="round"/>
<path d="M10.5317 7.5918H13.4705" stroke="black" stroke-width="1.46939" stroke-linecap="round" stroke-linejoin="round"/>
<path d="M7.44775 11.0684L8.91714 8.52246" stroke="black" stroke-width="1.46939" stroke-linecap="round" stroke-linejoin="round"/>
<path d="M8.91714 15.4776L7.44775 12.9326" stroke="black" stroke-width="1.46939" stroke-linecap="round" stroke-linejoin="round"/>
<path d="M13.4705 16.4092H10.5317" stroke="black" stroke-width="1.46939" stroke-linecap="round" stroke-linejoin="round"/>
<path d="M16.5534 12.9316L15.084 15.4776" stroke="black" stroke-width="1.46939" stroke-linecap="round" stroke-linejoin="round"/>
<path d="M15.083 8.52246L16.5534 11.0694" stroke="black" stroke-width="1.46939" stroke-linecap="round" stroke-linejoin="round"/>
</svg>
