<svg width="20" height="20" viewBox="0 0 20 20" fill="none" xmlns="http://www.w3.org/2000/svg">
<g clip-path="url(#clip0_1308_3122)">
<path d="M13 3H6.33333C4.49238 3 3 4.49238 3 6.33333V13C3 14.8409 4.49238 16.3333 6.33333 16.3333H13C14.8409 16.3333 16.3333 14.8409 16.3333 13V6.33333C16.3333 4.49238 14.8409 3 13 3Z" fill="white"/>
<path d="M10 12.5C11.3807 12.5 12.5 11.3807 12.5 10C12.5 8.61929 11.3807 7.5 10 7.5C8.61929 7.5 7.5 8.61929 7.5 10C7.5 11.3807 8.61929 12.5 10 12.5Z" stroke="#3258B9" stroke-width="1.66667" stroke-linecap="round" stroke-linejoin="round"/>
<path d="M13.75 6.25V6.251" stroke="#3258B9" stroke-width="1.66667" stroke-linecap="round" stroke-linejoin="round"/>
</g>
<defs>
<clipPath id="clip0_1308_3122">
<rect width="20" height="20" fill="white"/>
</clipPath>
</defs>
</svg>
