<svg width="24" height="24" viewBox="0 0 24 24" fill="none" xmlns="http://www.w3.org/2000/svg">
<g clip-path="url(#clip0_398_55517)">
<path d="M7.61438 9.53069C7.96838 9.15518 8.16711 8.64696 8.16711 8.11719C8.16711 7.58742 7.96838 7.07921 7.61438 6.7037L5.60536 4.58495C5.25044 4.21041 4.76913 4 4.26727 4C3.76541 4 3.2841 4.21041 2.92918 4.58495L1.82862 5.74771C1.36701 6.23641 1.07932 6.8783 1.01415 7.56499C0.948974 8.25167 1.11031 8.94106 1.47092 9.51671C4.71272 14.6659 8.89501 19.0808 13.773 22.5029C14.3185 22.8837 14.9718 23.054 15.6225 22.985C16.2733 22.916 16.8815 22.612 17.3444 22.1243L18.4459 20.9615C18.8007 20.5869 19 20.0788 19 19.549C19 19.0193 18.8007 18.5112 18.4459 18.1365L16.4378 16.0198C16.262 15.8342 16.0534 15.6869 15.8237 15.5865C15.594 15.486 15.3478 15.4343 15.0992 15.4343C14.8506 15.4343 14.6045 15.486 14.3748 15.5865C14.1451 15.6869 13.9364 15.8342 13.7607 16.0198L13.0916 16.726C10.8468 14.7773 8.78671 12.6027 6.9406 10.2329L7.61438 9.53069Z" stroke="black" stroke-width="1.5" stroke-linecap="round" stroke-linejoin="round"/>
<path d="M15 1H23" stroke="black" stroke-width="1.5" stroke-linecap="round" stroke-linejoin="round"/>
<path d="M15 5H23" stroke="black" stroke-width="1.5" stroke-linecap="round" stroke-linejoin="round"/>
<path d="M15 9H23" stroke="black" stroke-width="1.5" stroke-linecap="round" stroke-linejoin="round"/>
<path d="M12 1H13" stroke="black" stroke-width="1.5" stroke-linecap="round" stroke-linejoin="round"/>
<path d="M12 5H13" stroke="black" stroke-width="1.5" stroke-linecap="round" stroke-linejoin="round"/>
<path d="M12 9H13" stroke="black" stroke-width="1.5" stroke-linecap="round" stroke-linejoin="round"/>
</g>
<defs>
<clipPath id="clip0_398_55517">
<rect width="24" height="24" fill="white"/>
</clipPath>
</defs>
</svg>
