<svg width="24" height="24" viewBox="0 0 24 24" fill="none" xmlns="http://www.w3.org/2000/svg">
<g clip-path="url(#clip0_429_44471)">
<path d="M10 5C11.1046 5 12 4.10457 12 3C12 1.89543 11.1046 1 10 1C8.89543 1 8 1.89543 8 3C8 4.10457 8.89543 5 10 5Z" stroke="black" stroke-width="1.5" stroke-linecap="round" stroke-linejoin="round"/>
<path d="M9.47217 10.1601L10.5582 9.62609L11.7582 7.07509C11.835 6.91248 11.9542 6.77359 12.1033 6.67306C12.2524 6.57252 12.4259 6.51406 12.6054 6.50382C12.785 6.49358 12.964 6.53195 13.1236 6.61489C13.2831 6.69783 13.4174 6.82226 13.5122 6.97509L16.0192 11.0001C16.147 11.2038 16.1971 11.4467 16.1604 11.6844C16.1237 11.922 16.0025 12.1385 15.8192 12.2941L13.8032 13.9941L14.8362 16.6001C14.8848 16.7223 14.9089 16.853 14.907 16.9845C14.905 17.1161 14.8772 17.246 14.825 17.3667C14.7728 17.4875 14.6972 17.5968 14.6027 17.6883C14.5082 17.7798 14.3965 17.8518 14.2742 17.9001C14.2299 17.9179 14.1845 17.9326 14.1382 17.9441C13.9047 18.0002 13.6588 17.9705 13.4455 17.8604C13.2321 17.7502 13.0656 17.5669 12.9762 17.3441L11.6762 14.0571C11.5987 13.8617 11.5847 13.6469 11.6362 13.4432C11.6877 13.2395 11.8021 13.0571 11.9632 12.9221L13.8632 11.3221L13.0572 10.0221" stroke="black" stroke-width="1.5" stroke-linecap="round" stroke-linejoin="round"/>
<path d="M23 22.8932C20.6087 23.3916 19.1165 21 19.1165 21C18.7465 21.5884 18.2365 22.0759 17.6321 22.4191C17.0277 22.7623 16.3478 22.9505 15.653 22.9669C14.9959 22.9547 14.3542 22.7656 13.7956 22.4194C13.2369 22.0733 12.7818 21.583 12.4783 21C12.0325 21.5798 11.4663 22.056 10.8186 22.3956C10.1709 22.7352 9.45716 22.9301 8.72678 22.9669C8.03647 22.9336 7.36368 22.7383 6.76294 22.3966C6.16219 22.0548 5.65037 21.5764 5.26896 21C5.26896 21 3.34443 23.4318 1 22.9324" stroke="black" stroke-width="1.5" stroke-linecap="round" stroke-linejoin="round"/>
<path d="M17.2998 16.5H21.9998C21.8958 17.2955 21.6971 18.0757 21.4078 18.824" stroke="black" stroke-width="1.5" stroke-linecap="round" stroke-linejoin="round"/>
<path d="M3.107 18.855C2.76127 18.5675 2.48293 18.2075 2.29164 17.8006C2.10035 17.3936 2.00079 16.9497 2 16.5H10.143" stroke="black" stroke-width="1.5" stroke-linecap="round" stroke-linejoin="round"/>
<path d="M14.377 13.5H19.5C21.5 13.5 22 14.5 22 16.5" stroke="black" stroke-width="1.5" stroke-linecap="round" stroke-linejoin="round"/>
<path d="M2 16.5C2 14 7.5 10.5 7.5 10.5L9.5 13.5H11.622" stroke="black" stroke-width="1.5" stroke-linecap="round" stroke-linejoin="round"/>
</g>
<defs>
<clipPath id="clip0_429_44471">
<rect width="24" height="24" fill="white"/>
</clipPath>
</defs>
</svg>
