<svg width="24" height="24" viewBox="0 0 24 24" fill="none" xmlns="http://www.w3.org/2000/svg">
<g clip-path="url(#clip0_429_44426)">
<path d="M16.1548 7.84652C20.8433 12.5346 21.8108 19.4434 21.9978 21.4643C22.0046 21.536 21.9955 21.6083 21.9711 21.676C21.9468 21.7438 21.9078 21.8053 21.8569 21.8563C21.806 21.9073 21.7446 21.9464 21.6768 21.9708C21.6091 21.9953 21.5368 22.0046 21.4651 21.9979C19.444 21.8109 12.5346 20.8435 7.84609 16.1544C3.15757 11.4654 2.18912 4.5586 2.00209 2.53474C1.99545 2.46313 2.00467 2.39094 2.0291 2.32331C2.05352 2.25567 2.09255 2.19424 2.1434 2.14339C2.19426 2.09254 2.25569 2.05352 2.32334 2.0291C2.39098 2.00467 2.46317 1.99545 2.53479 2.00209C4.5559 2.19106 11.4653 3.15844 16.1548 7.84652Z" stroke="black" stroke-width="1.5" stroke-linecap="round" stroke-linejoin="round"/>
<path d="M15.3507 12.6378C15.7677 13.1185 16.0012 13.7684 16 14.4454C15.9988 15.1224 15.763 15.7712 15.3442 16.25C14.9254 16.7287 14.3577 16.9984 13.7654 17C13.173 17.0016 12.6043 16.7349 12.1835 16.2584L9.6489 13.3617C9.23194 12.8809 8.99863 12.2308 9.00001 11.5539C9.00139 10.8769 9.23735 10.2281 9.65626 9.7495C10.0752 9.27088 10.6429 9.00139 11.2353 9.00001C11.8276 8.99862 12.3963 9.26545 12.8169 9.74211L15.3507 12.6378Z" stroke="black" stroke-width="1.5" stroke-linecap="round" stroke-linejoin="round"/>
<path d="M7 17L5 19" stroke="black" stroke-width="1.5" stroke-linecap="round" stroke-linejoin="round"/>
<path d="M19 5L17 7" stroke="black" stroke-width="1.5" stroke-linecap="round" stroke-linejoin="round"/>
<path d="M19.8908 5.8367C19.6907 5.96419 19.4532 6.01961 19.2174 5.99382C18.9816 5.96803 18.7616 5.86257 18.5938 5.69485L18.3019 5.40279C18.135 5.23428 18.0306 5.01391 18.0057 4.77803C17.9809 4.54215 18.0372 4.30484 18.1653 4.10526L19.9669 1.48306C20.0507 1.35126 20.1631 1.23999 20.2957 1.15745C20.4283 1.07492 20.5777 1.02323 20.7329 1.00621C20.8882 0.989189 21.0452 1.00727 21.1925 1.05911C21.3398 1.11096 21.4736 1.19524 21.584 1.30574L22.6944 2.41658C22.8048 2.527 22.8891 2.66084 22.9409 2.80821C22.9927 2.95558 23.0108 3.11271 22.9938 3.268C22.9768 3.42329 22.9251 3.57278 22.8426 3.70541C22.7601 3.83805 22.6489 3.95046 22.5171 4.03433L19.8908 5.8367Z" stroke="black" stroke-width="1.5" stroke-linecap="round" stroke-linejoin="round"/>
<path d="M4.10526 18.1635C4.30541 18.0358 4.54305 17.9804 4.77896 18.0062C5.01486 18.032 5.23491 18.1376 5.40279 18.3055L5.69485 18.5978C5.86257 18.7659 5.96803 18.9862 5.99382 19.2223C6.01961 19.4585 5.96419 19.6964 5.8367 19.8967L4.03433 22.5164C3.95046 22.6484 3.83805 22.7598 3.70541 22.8424C3.57278 22.925 3.42329 22.9767 3.268 22.9938C3.11271 23.0108 2.95558 22.9927 2.80821 22.9408C2.66084 22.8889 2.527 22.8046 2.41658 22.6939L1.30574 21.5819C1.19524 21.4714 1.11096 21.3374 1.05911 21.1899C1.00727 21.0424 0.989189 20.8851 1.00621 20.7296C1.02323 20.5742 1.07492 20.4245 1.15745 20.2918C1.23999 20.159 1.35126 20.0465 1.48306 19.9625L4.10526 18.1635Z" stroke="black" stroke-width="1.5" stroke-linecap="round" stroke-linejoin="round"/>
</g>
<defs>
<clipPath id="clip0_429_44426">
<rect width="24" height="24" fill="white"/>
</clipPath>
</defs>
</svg>
