<svg width="24" height="24" viewBox="0 0 24 24" fill="none" xmlns="http://www.w3.org/2000/svg">
<g clip-path="url(#clip0_424_45175)">
<path d="M4.5 12C4.5 13.9891 5.29018 15.8968 6.6967 17.3033C8.10322 18.7098 10.0109 19.5 12 19.5C13.9891 19.5 15.8968 18.7098 17.3033 17.3033C18.7098 15.8968 19.5 13.9891 19.5 12C19.5 10.0109 18.7098 8.10322 17.3033 6.6967C15.8968 5.29018 13.9891 4.5 12 4.5C10.0109 4.5 8.10322 5.29018 6.6967 6.6967C5.29018 8.10322 4.5 10.0109 4.5 12V12Z" stroke="black" stroke-width="1.5" stroke-linecap="round" stroke-linejoin="round"/>
<path d="M12 0.75V4.5" stroke="black" stroke-width="1.5" stroke-linecap="round" stroke-linejoin="round"/>
<path d="M0.75 12H4.5" stroke="black" stroke-width="1.5" stroke-linecap="round" stroke-linejoin="round"/>
<path d="M12 23.25V19.5" stroke="black" stroke-width="1.5" stroke-linecap="round" stroke-linejoin="round"/>
<path d="M23.25 12H19.5" stroke="black" stroke-width="1.5" stroke-linecap="round" stroke-linejoin="round"/>
<circle cx="1.5" cy="1.5" r="2.25" transform="matrix(1 0 0 -1 10.5 13.5)" stroke="black" stroke-width="1.5"/>
</g>
<defs>
<clipPath id="clip0_424_45175">
<rect width="24" height="24" fill="white"/>
</clipPath>
</defs>
</svg>
