<svg width="24" height="24" viewBox="0 0 24 24" fill="none" xmlns="http://www.w3.org/2000/svg">
<g clip-path="url(#clip0_424_45306)">
<path d="M0.75 12C0.75 14.9837 1.93526 17.8452 4.04505 19.955C6.15483 22.0647 9.01631 23.25 12 23.25C14.9837 23.25 17.8452 22.0647 19.955 19.955C22.0647 17.8452 23.25 14.9837 23.25 12C23.25 9.01631 22.0647 6.15483 19.955 4.04505C17.8452 1.93526 14.9837 0.75 12 0.75C9.01631 0.75 6.15483 1.93526 4.04505 4.04505C1.93526 6.15483 0.75 9.01631 0.75 12V12Z" stroke="black" stroke-width="1.5" stroke-linecap="round" stroke-linejoin="round"/>
<path d="M15 10.5C15 11.0967 14.7629 11.669 14.341 12.091C13.919 12.5129 13.3467 12.75 12.75 12.75H10.5V8.25H12.75C13.3467 8.25 13.919 8.48705 14.341 8.90901C14.7629 9.33097 15 9.90326 15 10.5V10.5Z" stroke="black" stroke-width="1.5" stroke-linecap="round" stroke-linejoin="round"/>
<path d="M10.5 17.25V12.75" stroke="black" stroke-width="1.5" stroke-linecap="round" stroke-linejoin="round"/>
</g>
<defs>
<clipPath id="clip0_424_45306">
<rect width="24" height="24" fill="white"/>
</clipPath>
</defs>
</svg>
