<svg width="24" height="24" viewBox="0 0 24 24" fill="none" xmlns="http://www.w3.org/2000/svg">
<path d="M16.029 7.81104C17.2055 7.99661 18.2772 8.59608 19.051 9.50154C19.8248 10.407 20.25 11.559 20.25 12.75V13C20.25 13.3979 20.092 13.7794 19.8107 14.0607C19.5294 14.342 19.1478 14.5 18.75 14.5H17.75V21.75C17.75 22.1479 17.592 22.5294 17.3107 22.8107C17.0294 23.092 16.6478 23.25 16.25 23.25C15.8522 23.25 15.4706 23.092 15.1893 22.8107C14.908 22.5294 14.75 22.1479 14.75 21.75" stroke="black" stroke-width="1.5" stroke-linecap="round" stroke-linejoin="round"/>
<path d="M9.17119 6.4C10.7314 6.4 11.9962 5.1352 11.9962 3.575C11.9962 2.0148 10.7314 0.75 9.17119 0.75C7.61099 0.75 6.34619 2.0148 6.34619 3.575C6.34619 5.1352 7.61099 6.4 9.17119 6.4Z" stroke="black" stroke-width="1.5" stroke-linecap="round" stroke-linejoin="round"/>
<path d="M17.5 14.5H14C13.6022 14.5 13.2206 14.342 12.9393 14.0607C12.658 13.7794 12.5 13.3978 12.5 13C12.5 12.6022 12.658 12.2206 12.9393 11.9393C13.2206 11.658 13.6022 11.5 14 11.5H16.5" stroke="black" stroke-width="1.5" stroke-linecap="round" stroke-linejoin="round"/>
<path d="M9.25 21.7499V16.5559" stroke="black" stroke-width="1.5" stroke-linecap="round" stroke-linejoin="round"/>
<path d="M12.25 16.5V21.75C12.25 22.1478 12.092 22.5294 11.8107 22.8107C11.5294 23.092 11.1478 23.25 10.75 23.25C10.3522 23.25 9.97064 23.092 9.68934 22.8107C9.40804 22.5294 9.25 22.1478 9.25 21.75" stroke="black" stroke-width="1.5" stroke-linecap="round" stroke-linejoin="round"/>
<path d="M13.7551 0.87109C14.1792 0.742594 14.6277 0.715703 15.0642 0.79259C15.5007 0.869477 15.9129 1.04798 16.2677 1.31368C16.6224 1.57938 16.9096 1.92482 17.1062 2.32207C17.3027 2.71932 17.403 3.15724 17.399 3.60043C17.3949 4.04362 17.2867 4.47964 17.083 4.87325C16.8793 5.26687 16.5858 5.60702 16.2263 5.86623C15.8668 6.12544 15.4513 6.29643 15.0135 6.36537C14.5757 6.43431 14.1278 6.39927 13.7061 6.26309" stroke="black" stroke-width="1.5" stroke-linecap="round" stroke-linejoin="round"/>
<path d="M3.75 12.75C3.75 11.4239 4.27678 10.1521 5.21447 9.21447C6.15215 8.27678 7.42392 7.75 8.75 7.75H9.75C10.8586 7.74983 11.9358 8.1181 12.8123 8.79692C13.6888 9.47573 14.3148 10.4266 14.592 11.5" stroke="black" stroke-width="1.5" stroke-linecap="round" stroke-linejoin="round"/>
<path d="M9.25 21.75C9.25 22.1478 9.09196 22.5294 8.81066 22.8107C8.52936 23.092 8.14782 23.25 7.75 23.25C7.35218 23.25 6.97064 23.092 6.68934 22.8107C6.40804 22.5294 6.25 22.1478 6.25 21.75V14.688H5.25C4.85218 14.688 4.47064 14.53 4.18934 14.2487C3.90804 13.9674 3.75 13.5858 3.75 13.188V12.75" stroke="black" stroke-width="1.5" stroke-linecap="round" stroke-linejoin="round"/>
</svg>
