<svg width="24" height="24" viewBox="0 0 24 24" fill="none" xmlns="http://www.w3.org/2000/svg">
<g clip-path="url(#clip0_424_45164)">
<path d="M0.75 12C0.75 14.9837 1.93526 17.8452 4.04505 19.955C6.15483 22.0647 9.01631 23.25 12 23.25C14.9837 23.25 17.8452 22.0647 19.955 19.955C22.0647 17.8452 23.25 14.9837 23.25 12C23.25 9.01631 22.0647 6.15483 19.955 4.04505C17.8452 1.93526 14.9837 0.75 12 0.75C9.01631 0.75 6.15483 1.93526 4.04505 4.04505C1.93526 6.15483 0.75 9.01631 0.75 12V12Z" stroke="black" stroke-width="1.5" stroke-linecap="round" stroke-linejoin="round"/>
<path d="M9.75 14.25C9.75 14.695 9.88196 15.13 10.1292 15.5C10.3764 15.87 10.7278 16.1584 11.139 16.3287C11.5501 16.499 12.0025 16.5436 12.439 16.4568C12.8754 16.37 13.2763 16.1557 13.591 15.841C13.9057 15.5263 14.12 15.1254 14.2068 14.689C14.2936 14.2525 14.249 13.8001 14.0787 13.389C13.9084 12.9778 13.62 12.6264 13.25 12.3792C12.88 12.132 12.445 12 12 12C11.555 12 11.12 11.868 10.75 11.6208C10.38 11.3736 10.0916 11.0222 9.92127 10.611C9.75098 10.1999 9.70642 9.74751 9.79323 9.31105C9.88005 8.87459 10.0943 8.47368 10.409 8.15901C10.7237 7.84434 11.1246 7.63005 11.561 7.54323C11.9975 7.45642 12.4499 7.50097 12.861 7.67127C13.2722 7.84157 13.6236 8.12996 13.8708 8.49997C14.118 8.86998 14.25 9.30499 14.25 9.75" stroke="black" stroke-width="1.5" stroke-linecap="round" stroke-linejoin="round"/>
<path d="M12 6V7.5" stroke="black" stroke-width="1.5" stroke-linecap="round" stroke-linejoin="round"/>
<path d="M12 16.5V18" stroke="black" stroke-width="1.5" stroke-linecap="round" stroke-linejoin="round"/>
</g>
<defs>
<clipPath id="clip0_424_45164">
<rect width="24" height="24" fill="white"/>
</clipPath>
</defs>
</svg>
