<svg width="24" height="24" viewBox="0 0 24 24" fill="none" xmlns="http://www.w3.org/2000/svg">
<g clip-path="url(#clip0_424_45233)">
<path d="M14.5251 1.71436C19.3105 1.71436 23.1426 6.65601 23.1426 11.1429V12.8572C23.1426 14.7508 21.6077 16.2858 19.7141 16.2858H19.1542C18.564 19.6424 15.6342 22.2858 11.9998 22.2858C8.36539 22.2858 5.43555 19.6424 4.84544 16.2858H4.28551C2.39196 16.2858 0.856934 14.7508 0.856934 12.8572V11.1429C0.856934 6.65601 4.68908 1.71436 9.47449 1.71436H14.5251Z" stroke="black" stroke-width="1.71429" stroke-linejoin="round"/>
<path d="M9.42822 10.5798C9.59027 10.5798 9.72164 10.4484 9.72164 10.2863C9.72164 10.1243 9.59027 9.99292 9.42822 9.99292" stroke="black" stroke-width="1.71429" stroke-linecap="round" stroke-linejoin="round"/>
<path d="M9.42867 10.5798C9.26662 10.5798 9.13525 10.4484 9.13525 10.2863C9.13525 10.1243 9.26662 9.99292 9.42867 9.99292" stroke="black" stroke-width="1.71429" stroke-linecap="round" stroke-linejoin="round"/>
<path d="M14.5713 10.5798C14.7333 10.5798 14.8647 10.4484 14.8647 10.2863C14.8647 10.1243 14.7333 9.99292 14.5713 9.99292" stroke="black" stroke-width="1.71429" stroke-linecap="round" stroke-linejoin="round"/>
<path d="M14.5717 10.5798C14.4097 10.5798 14.2783 10.4484 14.2783 10.2863C14.2783 10.1243 14.4097 9.99292 14.5717 9.99292" stroke="black" stroke-width="1.71429" stroke-linecap="round" stroke-linejoin="round"/>
<path d="M6.0002 6.85718L4.8379 13.8309C4.10026 18.2568 7.51328 22.2857 12.0002 22.2857C16.4871 22.2857 19.9002 18.2568 19.1625 13.8309L18.0002 6.85718" stroke="black" stroke-width="1.71429" stroke-linecap="round" stroke-linejoin="round"/>
<path d="M13.7142 16.2856H10.2856L11.9999 17.9999L13.7142 16.2856Z" stroke="black" stroke-width="1.71429" stroke-linecap="round" stroke-linejoin="round"/>
</g>
<defs>
<clipPath id="clip0_424_45233">
<rect width="24" height="24" fill="white"/>
</clipPath>
</defs>
</svg>
