<svg width="24" height="24" viewBox="0 0 24 24" fill="none" xmlns="http://www.w3.org/2000/svg">
<g clip-path="url(#clip0_429_44306)">
<path d="M9.5 9.5V14.5" stroke="black" stroke-width="1.5" stroke-linecap="round" stroke-linejoin="round"/>
<path d="M14.5 9.5V14.5" stroke="black" stroke-width="1.5" stroke-linecap="round" stroke-linejoin="round"/>
<path d="M22.5 0.5H1.5C0.947715 0.5 0.5 0.947715 0.5 1.5V22.5C0.5 23.0523 0.947715 23.5 1.5 23.5H22.5C23.0523 23.5 23.5 23.0523 23.5 22.5V1.5C23.5 0.947715 23.0523 0.5 22.5 0.5Z" stroke="black" stroke-width="1.5" stroke-linecap="round" stroke-linejoin="round"/>
<path d="M12 19.5C16.1421 19.5 19.5 16.1421 19.5 12C19.5 7.85786 16.1421 4.5 12 4.5C7.85786 4.5 4.5 7.85786 4.5 12C4.5 16.1421 7.85786 19.5 12 19.5Z" stroke="black" stroke-width="1.5" stroke-linecap="round" stroke-linejoin="round"/>
</g>
<defs>
<clipPath id="clip0_429_44306">
<rect width="24" height="24" fill="white"/>
</clipPath>
</defs>
</svg>
