<svg width="24" height="24" viewBox="0 0 24 24" fill="none" xmlns="http://www.w3.org/2000/svg">
<g clip-path="url(#clip0_429_44309)">
<path d="M12 5.5V3.375H7.5V5.5C6.81786 5.89161 6.25082 6.45587 5.85587 7.13607C5.46091 7.81627 5.25195 8.58845 5.25 9.375V21.375C5.25 21.7728 5.40804 22.1544 5.68934 22.4357C5.97064 22.717 6.35218 22.875 6.75 22.875H12.75C13.1478 22.875 13.5294 22.717 13.8107 22.4357C14.092 22.1544 14.25 21.7728 14.25 21.375V9.375C14.248 8.58845 14.0391 7.81627 13.6441 7.13607C13.2492 6.45587 12.6821 5.89161 12 5.5Z" stroke="black" stroke-width="1.5" stroke-linecap="round" stroke-linejoin="round"/>
<path d="M23.25 5.625L15.75 4.875V1.875L23.25 1.125V5.625Z" stroke="black" stroke-width="1.5" stroke-linecap="round" stroke-linejoin="round"/>
<path d="M15.75 3.375H6.75C5.1587 3.375 3.63258 4.00714 2.50736 5.13236C1.38214 6.25758 0.75 7.7837 0.75 9.375V19.875" stroke="black" stroke-width="1.5" stroke-linecap="round" stroke-linejoin="round"/>
<path d="M8.25 3.375L5.25 1.125" stroke="black" stroke-width="1.5" stroke-linecap="round" stroke-linejoin="round"/>
<path d="M14.25 10.875H9.75V18.375H14.25" stroke="black" stroke-width="1.5" stroke-linecap="round" stroke-linejoin="round"/>
</g>
<defs>
<clipPath id="clip0_429_44309">
<rect width="24" height="24" fill="white"/>
</clipPath>
</defs>
</svg>
