<svg width="24" height="24" viewBox="0 0 24 24" fill="none" xmlns="http://www.w3.org/2000/svg">
<path d="M18.75 9.75H5.25C4.42157 9.75 3.75 10.4216 3.75 11.25V21.75C3.75 22.5784 4.42157 23.25 5.25 23.25H18.75C19.5784 23.25 20.25 22.5784 20.25 21.75V11.25C20.25 10.4216 19.5784 9.75 18.75 9.75Z" stroke="black" stroke-width="1.5" stroke-linecap="round" stroke-linejoin="round"/>
<path d="M6.75 9.75V6C6.75 4.60761 7.30312 3.27226 8.28769 2.28769C9.27226 1.30312 10.6076 0.75 12 0.75C13.3924 0.75 14.7277 1.30312 15.7123 2.28769C16.6969 3.27226 17.25 4.60761 17.25 6V9.75" stroke="black" stroke-width="1.5" stroke-linecap="round" stroke-linejoin="round"/>
<path d="M12 15V18" stroke="black" stroke-width="1.5" stroke-linecap="round" stroke-linejoin="round"/>
</svg>
