<svg width="24" height="24" viewBox="0 0 24 24" fill="none" xmlns="http://www.w3.org/2000/svg">
<path d="M18.75 0.75H5.25C4.42157 0.75 3.75 1.42157 3.75 2.25V21.75C3.75 22.5784 4.42157 23.25 5.25 23.25H18.75C19.5784 23.25 20.25 22.5784 20.25 21.75V2.25C20.25 1.42157 19.5784 0.75 18.75 0.75Z" stroke="black" stroke-width="1.5" stroke-linecap="round" stroke-linejoin="round"/>
<path d="M14.25 3.75H9.75C8.92157 3.75 8.25 4.42157 8.25 5.25V6.75C8.25 7.57843 8.92157 8.25 9.75 8.25H14.25C15.0784 8.25 15.75 7.57843 15.75 6.75V5.25C15.75 4.42157 15.0784 3.75 14.25 3.75Z" stroke="black" stroke-width="1.5" stroke-linecap="round" stroke-linejoin="round"/>
<path d="M3.75 8.25H20.25" stroke="black" stroke-width="1.5" stroke-linecap="round" stroke-linejoin="round"/>
<path d="M3.75 12.75H20.25" stroke="black" stroke-width="1.5" stroke-linecap="round" stroke-linejoin="round"/>
</svg>
