<svg width="40" height="40" viewBox="0 0 40 40" fill="none" xmlns="http://www.w3.org/2000/svg">
<path d="M31.6665 0.833252H8.33317C7.4127 0.833252 6.6665 1.57944 6.6665 2.49992V37.4999C6.6665 38.4204 7.4127 39.1666 8.33317 39.1666H31.6665C32.587 39.1666 33.3332 38.4204 33.3332 37.4999V2.49992C33.3332 1.57944 32.587 0.833252 31.6665 0.833252Z" stroke="black" stroke-width="1.5" stroke-linecap="round" stroke-linejoin="round"/>
<path d="M6.6665 14.1667H33.3332" stroke="black" stroke-width="1.5" stroke-linecap="round" stroke-linejoin="round"/>
<path d="M24.1665 4.16675H15.8332C14.9127 4.16675 14.1665 4.91294 14.1665 5.83341V9.16675C14.1665 10.0872 14.9127 10.8334 15.8332 10.8334H24.1665C25.087 10.8334 25.8332 10.0872 25.8332 9.16675V5.83341C25.8332 4.91294 25.087 4.16675 24.1665 4.16675Z" stroke="black" stroke-width="1.5" stroke-linecap="round" stroke-linejoin="round"/>
<path d="M6.6665 19.1667H33.3332" stroke="black" stroke-width="1.5" stroke-linecap="round" stroke-linejoin="round"/>
</svg>
