<svg width="24" height="24" viewBox="0 0 24 24" fill="none" xmlns="http://www.w3.org/2000/svg">
<path d="M2.00244 4.2113C2.00244 4.79777 2.23542 5.36022 2.65012 5.77492C3.06481 6.18962 3.62727 6.4226 4.21374 6.4226C4.80021 6.4226 5.36266 6.18962 5.77736 5.77492C6.19206 5.36022 6.42504 4.79777 6.42504 4.2113C6.42504 3.62483 6.19206 3.06237 5.77736 2.64767C5.36266 2.23298 4.80021 2 4.21374 2C3.62727 2 3.06481 2.23298 2.65012 2.64767C2.23542 3.06237 2.00244 3.62483 2.00244 4.2113V4.2113Z" stroke="black" stroke-width="1.5" stroke-linecap="round" stroke-linejoin="round"/>
<path d="M12.7788 20.4255C19.862 17.9072 18.8333 18.3389 20.1354 17.0369" stroke="black" stroke-width="1.5" stroke-linecap="round" stroke-linejoin="round"/>
<path d="M10.9434 8.63379H22.3466" stroke="black" stroke-width="1.5" stroke-linecap="round" stroke-linejoin="round"/>
<path d="M8.16951 21.8282L7.39644 18.3299C7.3317 18.0433 7.21082 17.7724 7.04079 17.5329C6.87075 17.2933 6.65492 17.0898 6.40578 16.9341L4.70308 15.8727C4.05083 15.4649 3.57376 14.8289 3.3648 14.0886L2.04952 9.43516C1.99405 9.23785 1.98504 9.03037 2.0232 8.82899C2.06137 8.62761 2.14567 8.43782 2.2695 8.27449C2.39332 8.11116 2.55331 7.97874 2.7369 7.88761C2.92049 7.79648 3.12269 7.74913 3.32765 7.74927H9.69619C10.0481 7.74927 10.3855 7.88905 10.6344 8.13787C10.8832 8.38669 11.023 8.72416 11.023 9.07605C11.023 9.42793 10.8832 9.7654 10.6344 10.0142C10.3855 10.263 10.0481 10.4028 9.69619 10.4028H5.66544C5.5971 10.4028 5.5297 10.4187 5.46852 10.4491C5.40734 10.4796 5.35405 10.5238 5.31283 10.5783C5.27161 10.6328 5.24358 10.6961 5.23094 10.7633C5.2183 10.8304 5.2214 10.8996 5.23999 10.9654L5.91841 13.3651C5.94826 13.4708 6.01636 13.5616 6.10947 13.6198L7.81217 14.6812C8.35838 15.0247 8.83128 15.4727 9.20365 15.9996C9.57602 16.5265 9.84051 17.1219 9.98189 17.7514L10.8328 21.5796" stroke="black" stroke-width="1.5" stroke-linecap="round" stroke-linejoin="round"/>
<path d="M22.3447 21.9013C20.1334 22.3622 18.7535 20.1509 18.7535 20.1509C18.4113 20.6949 17.9397 21.1457 17.3809 21.463C16.822 21.7804 16.1932 21.9543 15.5507 21.9695C14.9431 21.9582 14.3497 21.7833 13.8331 21.4633C13.3165 21.1433 12.8957 20.6899 12.615 20.1509V20.1509C12.2027 20.6869 11.679 21.1271 11.0801 21.4411C10.4812 21.7551 9.82126 21.9353 9.14588 21.9695C8.50753 21.9387 7.88539 21.7581 7.32987 21.4421C6.77434 21.1262 6.30105 20.6838 5.94835 20.1509V20.1509C5.94835 20.1509 4.17931 22.3993 2.00781 21.9376" stroke="black" stroke-width="1.5" stroke-linecap="round" stroke-linejoin="round"/>
</svg>
