<svg width="24" height="24" viewBox="0 0 24 24" fill="none" xmlns="http://www.w3.org/2000/svg">
<path d="M21.75 21.75H3.75V15.75H21.75C22.1478 15.75 22.5294 15.908 22.8107 16.1893C23.092 16.4706 23.25 16.8522 23.25 17.25V20.25C23.25 20.6478 23.092 21.0294 22.8107 21.3107C22.5294 21.592 22.1478 21.75 21.75 21.75Z" stroke="black" stroke-width="1.5" stroke-linecap="round" stroke-linejoin="round"/>
<path d="M15.75 15.75V21.75" stroke="black" stroke-width="1.5" stroke-linecap="round" stroke-linejoin="round"/>
<path d="M0.75 15.75V21.75" stroke="black" stroke-width="1.5" stroke-linecap="round" stroke-linejoin="round"/>
<path d="M8.25 2.25C8.25 3.44347 7.77589 4.58807 6.93198 5.43198C6.08807 6.27589 4.94347 6.75 3.75 6.75C2.95435 6.75 2.19129 7.06607 1.62868 7.62868C1.06607 8.19129 0.75 8.95435 0.75 9.75" stroke="black" stroke-width="1.5" stroke-linecap="round" stroke-linejoin="round"/>
<path d="M12.75 2.25C12.75 4.63695 11.8018 6.92613 10.114 8.61396C8.42613 10.3018 6.13695 11.25 3.75 11.25" stroke="black" stroke-width="1.5" stroke-linecap="round" stroke-linejoin="round"/>
</svg>
