<svg width="24" height="24" viewBox="0 0 24 24" fill="none" xmlns="http://www.w3.org/2000/svg">
<path d="M8.92285 17.5425C8.92285 18.1953 9.18218 18.8213 9.64378 19.2829C10.1054 19.7445 10.7314 20.0039 11.3843 20.0039C12.0371 20.0039 12.6631 19.7445 13.1247 19.2829C13.5863 18.8213 13.8457 18.1953 13.8457 17.5425C13.8457 16.8897 13.5863 16.2636 13.1247 15.802C12.6631 15.3404 12.0371 15.0811 11.3843 15.0811C10.7314 15.0811 10.1054 15.3404 9.64378 15.802C9.18218 16.2636 8.92285 16.8897 8.92285 17.5425Z" stroke="black" stroke-width="1.5" stroke-linecap="round" stroke-linejoin="round"/>
<path d="M8.92283 17.5425H6.46143" stroke="black" stroke-width="1.5" stroke-linecap="round" stroke-linejoin="round"/>
<path d="M14 18H16.8C17.9139 18 18.9822 17.5977 19.7698 16.8817C20.5575 16.1656 21 15.1945 21 14.1818V4" stroke="black" stroke-width="1.5" stroke-linecap="round" stroke-linejoin="round"/>
<path d="M11.3842 10.1535C11.3842 11.1327 11.7732 12.0718 12.4656 12.7642C13.158 13.4567 14.0971 13.8456 15.0763 13.8456H16.307C16.9598 13.8456 17.5859 13.5863 18.0475 13.1247C18.5091 12.6631 18.7684 12.037 18.7684 11.3842C18.7684 10.405 18.3794 9.46593 17.687 8.77353C16.9946 8.08113 16.0555 7.69214 15.0763 7.69214H7.6921C6.71289 7.69214 5.77379 8.08113 5.08139 8.77353C4.38899 9.46593 4 10.405 4 11.3842C4 12.037 4.25933 12.6631 4.72093 13.1247C5.18253 13.5863 5.8086 13.8456 6.4614 13.8456H7.6921C8.67131 13.8456 9.61041 13.4567 10.3028 12.7642C10.9952 12.0718 11.3842 11.1327 11.3842 10.1535Z" stroke="black" stroke-width="1.5" stroke-linecap="round" stroke-linejoin="round"/>
<path d="M11.3843 10.1584V7.69702" stroke="black" stroke-width="1.5" stroke-linecap="round" stroke-linejoin="round"/>
</svg>
