<svg width="24" height="24" viewBox="0 0 24 24" fill="none" xmlns="http://www.w3.org/2000/svg">
<path d="M19.25 0.75H4.75C3.92157 0.75 3.25 1.42157 3.25 2.25V21.75C3.25 22.5784 3.92157 23.25 4.75 23.25H19.25C20.0784 23.25 20.75 22.5784 20.75 21.75V2.25C20.75 1.42157 20.0784 0.75 19.25 0.75Z" stroke="black" stroke-width="1.5" stroke-linecap="round" stroke-linejoin="round"/>
<path d="M12 16.5C12.8284 16.5 13.5 15.8284 13.5 15C13.5 14.1716 12.8284 13.5 12 13.5C11.1716 13.5 10.5 14.1716 10.5 15C10.5 15.8284 11.1716 16.5 12 16.5Z" stroke="black" stroke-width="1.5" stroke-linecap="round" stroke-linejoin="round"/>
<path d="M12 6.75C12.8284 6.75 13.5 6.07843 13.5 5.25C13.5 4.42157 12.8284 3.75 12 3.75C11.1716 3.75 10.5 4.42157 10.5 5.25C10.5 6.07843 11.1716 6.75 12 6.75Z" stroke="black" stroke-width="1.5" stroke-linecap="round" stroke-linejoin="round"/>
<path d="M12 20.25C14.8995 20.25 17.25 17.8995 17.25 15C17.25 12.1005 14.8995 9.75 12 9.75C9.10051 9.75 6.75 12.1005 6.75 15C6.75 17.8995 9.10051 20.25 12 20.25Z" stroke="black" stroke-width="1.5" stroke-linecap="round" stroke-linejoin="round"/>
</svg>
