<svg width="24" height="24" viewBox="0 0 24 24" fill="none" xmlns="http://www.w3.org/2000/svg">
<path d="M4.66699 11.6156C4.66699 9.42973 5.50986 7.33339 7.01018 5.78775C8.51049 4.24211 10.5454 3.37378 12.6671 3.37378C14.7889 3.37378 16.8238 4.24211 18.3241 5.78775C19.8244 7.33339 20.6673 9.42973 20.6673 11.6156H4.66699Z" stroke="black" stroke-width="1.5" stroke-linecap="round" stroke-linejoin="round"/>
<path d="M3.33301 11.6152H22" stroke="black" stroke-width="1.5" stroke-linecap="round" stroke-linejoin="round"/>
<path d="M12.6665 2V3.37364" stroke="black" stroke-width="1.5" stroke-linecap="round" stroke-linejoin="round"/>
<path d="M2 21.2312L5.33339 17.8795L10.0001 22.0004L20.7203 14.0241C20.8695 13.9225 20.9907 13.7829 21.0722 13.6188C21.1537 13.4548 21.1928 13.2719 21.1856 13.0877C21.1785 12.9036 21.1254 12.7245 21.0314 12.5677C20.9374 12.4109 20.8058 12.2817 20.6492 12.1926V12.1926C20.0466 11.8212 19.3597 11.6197 18.6575 11.6084C17.9553 11.5972 17.2627 11.7765 16.6491 12.1285L14.0446 14.5736C13.1608 15.0845 12.12 15.2255 11.1379 14.9674C10.409 14.7842 10.249 14.4362 9.66235 13.8685L8.69344 12.4124C8.29768 12.0056 7.7878 11.7372 7.2359 11.6451C6.68399 11.5531 6.11796 11.6421 5.61784 11.8996V11.8996C5.51089 11.956 5.41835 12.0375 5.34772 12.1376C5.27709 12.2378 5.23035 12.3536 5.2113 12.4758C5.19226 12.598 5.20143 12.7231 5.23809 12.841C5.27474 12.9588 5.33785 13.0661 5.42228 13.1542L5.83117 13.5754C6.29488 14.0575 6.63696 14.6493 6.82755 15.299C7.01813 15.9487 7.05143 16.6366 6.92452 17.3026L6.59563 18.9875" stroke="black" stroke-width="1.5" stroke-linecap="round" stroke-linejoin="round"/>
</svg>
