<svg width="24" height="24" viewBox="0 0 24 24" fill="none" xmlns="http://www.w3.org/2000/svg">
<g clip-path="url(#clip0_429_44313)">
<path d="M5 11.75C5 13.5402 5.71116 15.2571 6.97703 16.523C8.2429 17.7888 9.95979 18.5 11.75 18.5C13.5402 18.5 15.2571 17.7888 16.523 16.523C17.7888 15.2571 18.5 13.5402 18.5 11.75C18.5 9.95979 17.7888 8.2429 16.523 6.97703C15.2571 5.71116 13.5402 5 11.75 5C9.95979 5 8.2429 5.71116 6.97703 6.97703C5.71116 8.2429 5 9.95979 5 11.75V11.75Z" stroke="black" stroke-width="1.5" stroke-linecap="round" stroke-linejoin="round"/>
<path d="M12 2.25V0.75" stroke="black" stroke-width="1.5" stroke-linecap="round" stroke-linejoin="round"/>
<path d="M18.894 5.10592L19.955 4.04492" stroke="black" stroke-width="1.5" stroke-linecap="round" stroke-linejoin="round"/>
<path d="M21.75 12H23.25" stroke="black" stroke-width="1.5" stroke-linecap="round" stroke-linejoin="round"/>
<path d="M18.894 18.894L19.955 19.955" stroke="black" stroke-width="1.5" stroke-linecap="round" stroke-linejoin="round"/>
<path d="M12 21.75V23.25" stroke="black" stroke-width="1.5" stroke-linecap="round" stroke-linejoin="round"/>
<path d="M5.10592 18.894L4.04492 19.955" stroke="black" stroke-width="1.5" stroke-linecap="round" stroke-linejoin="round"/>
<path d="M2.25 12H0.75" stroke="black" stroke-width="1.5" stroke-linecap="round" stroke-linejoin="round"/>
<path d="M5.10592 5.10592L4.04492 4.04492" stroke="black" stroke-width="1.5" stroke-linecap="round" stroke-linejoin="round"/>
</g>
<defs>
<clipPath id="clip0_429_44313">
<rect width="24" height="24" fill="white"/>
</clipPath>
</defs>
</svg>
