<svg width="24" height="24" viewBox="0 0 24 24" fill="none" xmlns="http://www.w3.org/2000/svg">
<path d="M17.4033 7.86097C17.5376 7.81314 17.6587 7.73287 17.7565 7.62691C17.8542 7.52095 17.9258 7.3924 17.9652 7.25207C18.0046 7.11175 18.0106 6.96375 17.9828 6.82053C17.955 6.67732 17.8941 6.54306 17.8053 6.42907C16.6595 4.95422 15.0968 3.88111 13.3327 3.3577C11.5686 2.8343 9.69003 2.88638 7.95595 3.50678C6.22187 4.12718 4.71775 5.28533 3.65099 6.82153C2.58423 8.35772 2.00739 10.1963 2.00001 12.0837C1.99935 12.2296 2.03275 12.3736 2.09742 12.5035C2.16208 12.6333 2.25612 12.7454 2.37164 12.8302C2.48716 12.915 2.62079 12.9701 2.7613 12.9908C2.90181 13.0115 3.0451 12.9972 3.17915 12.9492L17.4033 7.86097Z" stroke="black" stroke-width="1.5" stroke-linecap="round" stroke-linejoin="round"/>
<path d="M8 4L7 2" stroke="black" stroke-width="1.5" stroke-linecap="round" stroke-linejoin="round"/>
<path d="M10 10L11 13" stroke="black" stroke-width="1.5" stroke-linecap="round" stroke-linejoin="round"/>
<path d="M15.6166 18.747C15.5354 18.8269 15.4377 18.8905 15.3295 18.934C15.2214 18.9774 15.1049 18.9999 14.9872 19H3.74092C3.2792 19 2.83639 18.828 2.5099 18.5219C2.18342 18.2158 2 17.8006 2 17.3677C2 16.9347 2.18342 16.5196 2.5099 16.2134C2.83639 15.9073 3.2792 15.7353 3.74092 15.7353H13.5048C13.6242 15.7353 13.7423 15.7122 13.8518 15.6676C13.9612 15.6229 14.0597 15.5577 14.1411 15.4758L18.9435 11.5223C19.1025 11.3637 19.2933 11.236 19.505 11.1465C19.7167 11.057 19.9452 11.0075 20.1773 11.0008C20.4094 10.9941 20.6406 11.0303 20.8578 11.1074C21.0749 11.1845 21.2738 11.3009 21.443 11.4501C21.6122 11.5992 21.7483 11.7781 21.8438 11.9766C21.9392 12.1751 21.992 12.3893 21.9992 12.6069C22.0063 12.8245 21.9677 13.0413 21.8855 13.245C21.8033 13.4486 21.6791 13.635 21.52 13.7937L15.6166 18.747Z" stroke="black" stroke-width="1.5" stroke-linecap="round" stroke-linejoin="round"/>
<path d="M5 22L7 19" stroke="black" stroke-width="1.5" stroke-linecap="round" stroke-linejoin="round"/>
<path d="M16 22L14 19" stroke="black" stroke-width="1.5" stroke-linecap="round" stroke-linejoin="round"/>
</svg>
