<svg width="24" height="24" viewBox="0 0 24 24" fill="none" xmlns="http://www.w3.org/2000/svg">
<path d="M9.10156 21.63C10.5508 20.5655 12.3034 19.9942 14.1016 20H21.6016" stroke="black" stroke-width="1.5" stroke-linecap="round" stroke-linejoin="round"/>
<path d="M20.3616 9.65009C20.511 9.59678 20.6456 9.50871 20.7542 9.39313C20.8628 9.27756 20.9424 9.1378 20.9864 8.9854C21.0303 8.833 21.0374 8.67233 21.007 8.51666C20.9766 8.36098 20.9097 8.21476 20.8116 8.09009C19.5203 6.47522 17.7602 5.30032 15.7736 4.72713C13.787 4.15394 11.6716 4.21065 9.71851 4.88945C7.76545 5.56825 6.07083 6.83576 4.86793 8.51749C3.66503 10.1992 3.013 12.2125 3.0016 14.2801C2.99229 14.4444 3.02369 14.6085 3.09302 14.7578C3.16235 14.9071 3.26747 15.037 3.39904 15.1359C3.53061 15.2349 3.68457 15.2998 3.84725 15.3249C4.00993 15.3501 4.1763 15.3347 4.3316 15.2801L20.3616 9.65009Z" stroke="black" stroke-width="1.5" stroke-linecap="round" stroke-linejoin="round"/>
<path d="M9.72152 4.89L9.06152 3" stroke="black" stroke-width="1.5" stroke-linecap="round" stroke-linejoin="round"/>
<path d="M12.3418 12.4399L14.9718 19.9999" stroke="black" stroke-width="1.5" stroke-linecap="round" stroke-linejoin="round"/>
</svg>
