<svg width="24" height="24" viewBox="0 0 24 24" fill="none" xmlns="http://www.w3.org/2000/svg">
<g clip-path="url(#clip0_429_44487)">
<path d="M13.9142 22.6844C13.8713 22.9139 13.7494 23.1211 13.5696 23.2702C13.3899 23.4192 13.1637 23.5007 12.9302 23.5004H10.5912C10.3577 23.5007 10.1315 23.4192 9.95181 23.2702C9.77209 23.1211 9.65018 22.9139 9.60722 22.6844L8.34622 15.9554C7.38031 10.8078 8.45358 5.48626 11.3392 1.11542C11.3861 1.04674 11.4491 0.990542 11.5226 0.951709C11.5961 0.912876 11.6781 0.892578 11.7612 0.892578C11.8444 0.892578 11.9263 0.912876 11.9998 0.951709C12.0734 0.990542 12.1363 1.04674 12.1832 1.11542C15.0667 5.48712 16.1382 10.8084 15.1712 15.9554L13.9142 22.6844Z" stroke="black" stroke-width="1.5" stroke-linecap="round" stroke-linejoin="round"/>
<path d="M8.19043 14.9979L15.2414 8.87988" stroke="black" stroke-width="1.5" stroke-linecap="round" stroke-linejoin="round"/>
<path d="M8.92188 19.0214L15.4919 13.3184" stroke="black" stroke-width="1.5" stroke-linecap="round" stroke-linejoin="round"/>
</g>
<defs>
<clipPath id="clip0_429_44487">
<rect width="24" height="24" fill="white"/>
</clipPath>
</defs>
</svg>
