<svg width="24" height="24" viewBox="0 0 24 24" fill="none" xmlns="http://www.w3.org/2000/svg">
<g clip-path="url(#clip0_398_55450)">
<path d="M20.5 3C20.5 3.13261 20.4473 3.25979 20.3536 3.35355C20.2598 3.44732 20.1326 3.5 20 3.5H4C3.86739 3.5 3.74021 3.44732 3.64645 3.35355C3.55268 3.25979 3.5 3.13261 3.5 3V2.5C3.5 1.96957 3.71071 1.46086 4.08579 1.08579C4.46086 0.710714 4.96957 0.5 5.5 0.5H18.5C19.0304 0.5 19.5391 0.710714 19.9142 1.08579C20.2893 1.46086 20.5 1.96957 20.5 2.5V3Z" stroke="black" stroke-width="1.5" stroke-linecap="round" stroke-linejoin="round"/>
<path d="M19.5 13.5H4.5V12.5C4.5 11.9696 4.71071 11.4609 5.08579 11.0858C5.46086 10.7107 5.96957 10.5 6.5 10.5H17.5C18.0304 10.5 18.5391 10.7107 18.9142 11.0858C19.2893 11.4609 19.5 11.9696 19.5 12.5V13.5Z" stroke="black" stroke-width="1.5" stroke-linecap="round" stroke-linejoin="round"/>
<path d="M5 3.5L5.518 10.757" stroke="black" stroke-width="1.5" stroke-linecap="round" stroke-linejoin="round"/>
<path d="M18.9999 3.5L18.4819 10.757" stroke="black" stroke-width="1.5" stroke-linecap="round" stroke-linejoin="round"/>
<path d="M19 13.5H5C4.99976 14.4004 5.24318 15.284 5.70444 16.0572C6.1657 16.8305 6.82762 17.4645 7.62 17.892C7.99055 18.0928 8.28821 18.4055 8.47049 18.7855C8.65277 19.1655 8.71034 19.5933 8.635 20.008L8.107 22.908C8.09381 22.9801 8.09663 23.0542 8.11526 23.1251C8.13389 23.196 8.16789 23.2619 8.21483 23.3182C8.26177 23.3745 8.32052 23.4198 8.38691 23.4509C8.4533 23.4819 8.5257 23.498 8.599 23.498H15.399C15.4723 23.498 15.5447 23.4819 15.6111 23.4509C15.6775 23.4198 15.7362 23.3745 15.7832 23.3182C15.8301 23.2619 15.8641 23.196 15.8827 23.1251C15.9014 23.0542 15.9042 22.9801 15.891 22.908L15.363 20.008C15.2877 19.5933 15.3452 19.1655 15.5275 18.7855C15.7098 18.4055 16.0074 18.0928 16.378 17.892C17.1708 17.4647 17.8331 16.8309 18.2947 16.0576C18.7563 15.2843 19 14.4006 19 13.5Z" stroke="black" stroke-width="1.5" stroke-linecap="round" stroke-linejoin="round"/>
</g>
<defs>
<clipPath id="clip0_398_55450">
<rect width="24" height="24" fill="white"/>
</clipPath>
</defs>
</svg>
