<svg width="24" height="24" viewBox="0 0 24 24" fill="none" xmlns="http://www.w3.org/2000/svg">
<path d="M9.81787 12.75C9.4754 12.7501 9.14322 12.6329 8.87653 12.4181C8.60984 12.2033 8.4247 11.9036 8.35187 11.569L6.31187 2.185C6.25993 1.95151 6.16251 1.73053 6.02517 1.53469C5.88784 1.33885 5.71327 1.17198 5.51144 1.0436C5.10383 0.784331 4.60992 0.697603 4.13837 0.802496C3.66681 0.90739 3.25624 1.19531 2.99697 1.60292C2.7377 2.01053 2.65097 2.50444 2.75587 2.976L5.99987 17.25H21.7499V15.75C21.7499 14.9543 21.4338 14.1913 20.8712 13.6287C20.3086 13.0661 19.5455 12.75 18.7499 12.75H9.81787Z" stroke="black" stroke-width="1.5" stroke-linecap="round" stroke-linejoin="round"/>
<path d="M17.2499 23.25V9.75C17.2499 9.35218 17.0918 8.97064 16.8105 8.68934C16.5292 8.40804 16.1477 8.25 15.7499 8.25H7.63086" stroke="black" stroke-width="1.5" stroke-linecap="round" stroke-linejoin="round"/>
<path d="M6 17.25L2.25 23.25" stroke="black" stroke-width="1.5" stroke-linecap="round" stroke-linejoin="round"/>
</svg>
