<svg width="24" height="24" viewBox="0 0 24 24" fill="none" xmlns="http://www.w3.org/2000/svg">
<g clip-path="url(#clip0_398_55461)">
<path d="M22.4576 16.9138V6.79822C22.4578 6.78293 22.4579 6.76774 22.4579 6.75266C22.4579 6.73668 22.4578 6.72058 22.4576 6.70438V6.45845L22.448 6.45746C22.3299 4.67335 21.1443 1.87646 17.673 1.71584C11.7098 1.43995 9.38496 1.43516 3.53546 1.70226C3.34148 1.71111 3.14484 1.74842 2.97466 1.84191C2.07614 2.33551 1.53538 3.34356 1.54205 4.32944V14.6433" stroke="black" stroke-width="1.5" stroke-linejoin="round"/>
<path d="M17.6727 12.2105C11.7096 11.9346 9.38479 11.9298 3.53528 12.1969C3.34129 12.2057 3.14466 12.243 2.97447 12.3365C1.12149 13.3545 0.792931 16.5606 3.64033 17.2473C0.941429 18.3857 1.00313 20.9446 2.93038 22.1162C3.12841 22.2365 3.36137 22.2898 3.59286 22.3003C9.40011 22.5648 11.7292 22.5591 17.6727 22.284C21.2059 22.1206 22.4578 18.9984 22.4578 17.2473C22.4578 15.4962 21.3425 12.3802 17.6727 12.2105Z" stroke="black" stroke-width="1.5"/>
<path d="M3.64062 17.2473H15.5895" stroke="black" stroke-width="1.5" stroke-linecap="round"/>
<path d="M7.74365 1.55347V12" stroke="black" stroke-width="1.5" stroke-linecap="round"/>
</g>
<defs>
<clipPath id="clip0_398_55461">
<rect width="24" height="24" fill="white"/>
</clipPath>
</defs>
</svg>
