<svg width="24" height="24" viewBox="0 0 24 24" fill="none" xmlns="http://www.w3.org/2000/svg">
<g clip-path="url(#clip0_401_43608)">
<path d="M0.75 12C0.75 14.9837 1.93526 17.8452 4.04505 19.955C6.15483 22.0647 9.01631 23.25 12 23.25C14.9837 23.25 17.8452 22.0647 19.955 19.955C22.0647 17.8452 23.25 14.9837 23.25 12C23.25 9.01631 22.0647 6.15483 19.955 4.04505C17.8452 1.93526 14.9837 0.75 12 0.75C9.01631 0.75 6.15483 1.93526 4.04505 4.04505C1.93526 6.15483 0.75 9.01631 0.75 12V12Z" stroke="black" stroke-width="1.5" stroke-linecap="round" stroke-linejoin="round"/>
<path d="M11.9999 7.77202C9.31287 7.72802 6.53287 9.55002 4.78587 11.415C4.60285 11.6099 4.50098 11.8672 4.50098 12.1345C4.50098 12.4019 4.60285 12.6592 4.78587 12.854C6.49987 14.68 9.26387 16.543 11.9999 16.5C14.7359 16.544 17.4999 14.681 19.2159 12.855C19.3989 12.6601 19.5008 12.4029 19.5008 12.1355C19.5008 11.8682 19.3989 11.6109 19.2159 11.416C17.4669 9.55002 14.6869 7.72802 11.9999 7.77202Z" stroke="black" stroke-width="1.5" stroke-linecap="round" stroke-linejoin="round"/>
<path d="M10.5 12.135C10.5 12.5328 10.658 12.9144 10.9393 13.1957C11.2206 13.477 11.6022 13.635 12 13.635C12.3978 13.635 12.7794 13.477 13.0607 13.1957C13.342 12.9144 13.5 12.5328 13.5 12.135C13.5 11.7372 13.342 11.3557 13.0607 11.0743C12.7794 10.793 12.3978 10.635 12 10.635C11.6022 10.635 11.2206 10.793 10.9393 11.0743C10.658 11.3557 10.5 11.7372 10.5 12.135V12.135Z" stroke="black" stroke-width="1.5" stroke-linecap="round" stroke-linejoin="round"/>
</g>
<defs>
<clipPath id="clip0_401_43608">
<rect width="24" height="24" fill="white"/>
</clipPath>
</defs>
</svg>
