<svg width="24" height="24" viewBox="0 0 24 24" fill="none" xmlns="http://www.w3.org/2000/svg">
<g clip-path="url(#clip0_398_55664)">
<path d="M12 14.998V23.498" stroke="black" stroke-width="1.5" stroke-linecap="round" stroke-linejoin="round"/>
<path d="M19.6318 4C20.6998 5.06788 21.5469 6.33567 22.1249 7.73096C22.7029 9.12626 23.0004 10.6217 23.0004 12.132C23.0004 13.6423 22.7029 15.1377 22.1249 16.533C21.5469 17.9283 20.6998 19.1961 19.6318 20.264" stroke="black" stroke-width="1.5" stroke-linecap="round" stroke-linejoin="round"/>
<path d="M16.7998 6.8269C17.4963 7.52335 18.0488 8.35017 18.4257 9.26015C18.8027 10.1701 18.9967 11.1454 18.9967 12.1304C18.9967 13.1154 18.8027 14.0907 18.4257 15.0007C18.0488 15.9106 17.4963 16.7375 16.7998 17.4339" stroke="black" stroke-width="1.5" stroke-linecap="round" stroke-linejoin="round"/>
<path d="M4.36806 4C3.3001 5.06788 2.45295 6.33567 1.87497 7.73096C1.29699 9.12626 0.999512 10.6217 0.999512 12.132C0.999512 13.6423 1.29699 15.1377 1.87497 16.533C2.45295 17.9283 3.3001 19.1961 4.36806 20.264" stroke="black" stroke-width="1.5" stroke-linecap="round" stroke-linejoin="round"/>
<path d="M7.19983 6.8269C6.50333 7.52335 5.95083 8.35017 5.57389 9.26015C5.19694 10.1701 5.00293 11.1454 5.00293 12.1304C5.00293 13.1154 5.19694 14.0907 5.57389 15.0007C5.95083 15.9106 6.50333 16.7375 7.19983 17.4339" stroke="black" stroke-width="1.5" stroke-linecap="round" stroke-linejoin="round"/>
<path d="M9 11.998C9 12.7937 9.31607 13.5568 9.87868 14.1194C10.4413 14.682 11.2044 14.998 12 14.998C12.7956 14.998 13.5587 14.682 14.1213 14.1194C14.6839 13.5568 15 12.7937 15 11.998C15 11.2024 14.6839 10.4393 14.1213 9.87673C13.5587 9.31412 12.7956 8.99805 12 8.99805C11.2044 8.99805 10.4413 9.31412 9.87868 9.87673C9.31607 10.4393 9 11.2024 9 11.998Z" stroke="black" stroke-width="1.5" stroke-linecap="round" stroke-linejoin="round"/>
</g>
<defs>
<clipPath id="clip0_398_55664">
<rect width="24" height="24" fill="white"/>
</clipPath>
</defs>
</svg>
