<svg width="24" height="24" viewBox="0 0 24 24" fill="none" xmlns="http://www.w3.org/2000/svg">
<path d="M0.75 20.2629C1.56444 20.3637 2.3911 20.2814 3.16964 20.0219C3.94818 19.7623 4.65893 19.3322 5.25 18.7629C5.67632 19.2351 6.19699 19.6126 6.77835 19.871C7.35971 20.1294 7.98881 20.2629 8.625 20.2629C9.26119 20.2629 9.89029 20.1294 10.4716 19.871C11.053 19.6126 11.5737 19.2351 12 18.7629C12.4263 19.2351 12.947 19.6126 13.5284 19.871C14.1097 20.1294 14.7388 20.2629 15.375 20.2629C16.0112 20.2629 16.6403 20.1294 17.2216 19.871C17.803 19.6126 18.3237 19.2351 18.75 18.7629C19.3411 19.3322 20.0518 19.7623 20.8304 20.0219C21.6089 20.2814 22.4356 20.3637 23.25 20.2629" stroke="black" stroke-width="1.5" stroke-linecap="round" stroke-linejoin="round"/>
<path d="M2.25 17.2629V15.7629C2.25 15.3651 2.40804 14.9836 2.68934 14.7023C2.97064 14.421 3.35218 14.2629 3.75 14.2629H22.5C22.6346 14.2632 22.7667 14.2996 22.8824 14.3685C22.9982 14.4373 23.0932 14.5359 23.1578 14.6541C23.2223 14.7723 23.2538 14.9056 23.2491 15.0402C23.2444 15.1747 23.2036 15.3056 23.131 15.4189L22.107 17.0109" stroke="black" stroke-width="1.5" stroke-linecap="round" stroke-linejoin="round"/>
<path d="M5.25 14.2629V11.2629C5.25 10.8651 5.09196 10.4836 4.81066 10.2023C4.52936 9.92097 4.14782 9.76294 3.75 9.76294C3.35218 9.76294 2.97064 9.6049 2.68934 9.3236C2.40804 9.04229 2.25 8.66076 2.25 8.26294C2.25 7.86511 2.40804 7.48358 2.68934 7.20228C2.97064 6.92097 3.35218 6.76294 3.75 6.76294H11.332C11.5425 6.76337 11.7506 6.80811 11.9427 6.89425C12.1348 6.9804 12.3066 7.10602 12.447 7.26294L18.747 14.2629" stroke="black" stroke-width="1.5" stroke-linecap="round" stroke-linejoin="round"/>
<path d="M9.75 6.76294L6.75 3.01294" stroke="black" stroke-width="1.5" stroke-linecap="round" stroke-linejoin="round"/>
<path d="M14.7 9.76294H9.75" stroke="black" stroke-width="1.5" stroke-linecap="round" stroke-linejoin="round"/>
</svg>
