<svg width="99" height="40" viewBox="0 0 99 40" fill="none" xmlns="http://www.w3.org/2000/svg">
<g clip-path="url(#clip0_1303_7515)">
<path d="M85.6912 0C85.388 4.64899 84.0997 5.93733 79.4507 6.24047C84.0997 6.54361 85.388 7.83194 85.6912 12.4809C85.9943 7.83194 87.2826 6.54361 91.9316 6.24047C87.2826 5.93733 85.9943 4.64899 85.6912 0Z" fill="black"/>
</g>
<g clip-path="url(#clip1_1303_7515)">
<path d="M95.2166 10.5103C95.057 12.9571 94.379 13.6352 91.9321 13.7947C94.379 13.9543 95.057 14.6323 95.2166 17.0792C95.3761 14.6323 96.0542 13.9543 98.501 13.7947C96.0542 13.6352 95.3761 12.9571 95.2166 10.5103Z" fill="black"/>
</g>
<path d="M22.4 16.6805H17.4733L17.4405 16.7462C19.2469 17.6658 18.7871 20.0963 17.3748 22.4611L13.0393 29.6869L6.14193 19.0453C5.4522 17.9286 5.32082 17.1075 5.97771 16.7462L5.94487 16.6805H0.0328446L0 16.7462C0.755425 17.1075 1.51085 17.9286 2.23343 19.0125L9.75484 30.2453V36.9784C9.75484 38.3251 9.45924 39.2447 8.83519 39.606L8.86803 39.6717H14.583L14.6158 39.606C13.9918 39.2447 13.6962 38.3251 13.6962 36.9784V29.1286L19.871 19.7679C20.7906 18.3884 21.6446 17.5016 22.4328 16.7462L22.4 16.6805Z" fill="black"/>
<path d="M35.0898 40.0001C41.9543 40.0001 47.0781 35.2048 47.0781 28.0119C47.0781 20.7532 42.0857 16.3521 35.4182 16.3521C28.5537 16.3521 23.43 21.213 23.43 28.5045C23.43 35.6647 28.4224 40.0001 35.0898 40.0001ZM36.3379 39.4746C30.82 39.4746 27.1414 32.9386 27.1414 25.45C27.1414 19.9978 30.0646 16.8447 34.1702 16.8447C39.688 16.8447 43.3666 23.545 43.3666 31.0336C43.3666 36.4201 40.4435 39.4746 36.3379 39.4746Z" fill="black"/>
<path d="M62.8999 37.2412C62.0788 38.8834 60.4366 39.4746 59.0243 39.4746H53.8677V19.3738C53.8677 18.0271 54.1633 17.1075 54.7873 16.7462L54.7545 16.6805H49.0067L48.9738 16.7462C49.5979 17.1075 49.8935 18.0271 49.8935 19.3738V36.9784C49.8935 38.3251 49.5979 39.2447 48.9738 39.606L49.0067 39.6717H62.9656V37.274L62.8999 37.2412Z" fill="black"/>
<path d="M76.4663 40.0001C83.3308 40.0001 88.4545 35.2048 88.4545 28.0119C88.4545 20.7532 83.4622 16.3521 76.7947 16.3521C69.9302 16.3521 64.8064 21.213 64.8064 28.5045C64.8064 35.6647 69.7988 40.0001 76.4663 40.0001ZM77.7144 39.4746C72.1965 39.4746 68.5179 32.9386 68.5179 25.45C68.5179 19.9978 71.441 16.8447 75.5466 16.8447C81.0645 16.8447 84.7431 23.545 84.7431 31.0336C84.7431 36.4201 81.8199 39.4746 77.7144 39.4746Z" fill="black"/>
<defs>
<clipPath id="clip0_1303_7515">
<rect width="12.4809" height="12.4809" fill="white" transform="translate(79.4507)"/>
</clipPath>
<clipPath id="clip1_1303_7515">
<rect width="6.56891" height="6.56891" fill="white" transform="translate(91.9321 10.5103)"/>
</clipPath>
</defs>
</svg>
